<svg xmlns="http://www.w3.org/2000/svg" xmlns:xlink="http://www.w3.org/1999/xlink" fill="none" version="1.1" width="108" height="108" viewBox="0 0 108 108"><defs><clipPath id="master_svg0_2233_11265"><rect x="0" y="0" width="108" height="108" rx="0"/></clipPath><filter id="master_svg1_2233_11266/1678_14765" filterUnits="objectBoundingBox" color-interpolation-filters="sRGB" x="-0.21264266967773438" y="-0.18606233596801758" width="1.4252853393554688" height="1.4252853393554688"><feFlood flood-opacity="0" result="BackgroundImageFix"/><feColorMatrix in="SourceAlpha" type="matrix" values="0 0 0 0 0 0 0 0 0 0 0 0 0 0 0 0 0 0 127 0"/><feOffset dy="1.435338020324707" dx="0"/><feGaussianBlur stdDeviation="2.870676040649414"/><feColorMatrix type="matrix" values="0 0 0 0 0.6941176652908325 0 0 0 0 0.6941176652908325 0 0 0 0 0.7490196228027344 0 0 0 0.10000000149011612 0"/><feBlend mode="normal" in2="BackgroundImageFix" result="effect1_dropShadow"/><feBlend mode="normal" in="SourceGraphic" in2="effect1_dropShadow" result="shape"/></filter><linearGradient x1="0.5" y1="0" x2="0.5304249747671832" y2="0.9920050710600882" id="master_svg2_1678_13266"><stop offset="0%" stop-color="#FFFFFF" stop-opacity="0"/><stop offset="100%" stop-color="#FFFFFF" stop-opacity="1"/></linearGradient><mask id="master_svg3_2233_11266/1678_14762" style="mask-type:alpha" maskUnits="objectBoundingBox"><g><rect x="49" y="29" width="34" height="57" rx="0" fill="url(#master_svg2_1678_13266)" fill-opacity="1"/></g></mask><radialGradient cx="0" cy="0" r="1" gradientUnits="userSpaceOnUse" id="master_svg4_1678_13517" gradientTransform="translate(35.6583027690649 27.874999918043613) rotate(70.58232975098102) scale(62.69084445241833 70.17631841688619)"><stop offset="6.100108847022057%" stop-color="#FFFFFF" stop-opacity="0.6000000238418579"/><stop offset="76.77093744277954%" stop-color="#FFFFFF" stop-opacity="0"/></radialGradient><mask id="master_svg5_2233_11266/1678_14758" style="mask-type:alpha" maskUnits="objectBoundingBox"><g><rect x="19" y="20" width="75" height="67" rx="0" fill="url(#master_svg4_1678_13517)" fill-opacity="1"/></g></mask><linearGradient x1="0.5" y1="1" x2="0.5" y2="0" id="master_svg6_1678_14745"><stop offset="3.3105041831731796%" stop-color="#FFFFFF" stop-opacity="1"/><stop offset="46.77555859088898%" stop-color="#FFFFFF" stop-opacity="1"/><stop offset="87.59205937385559%" stop-color="#FFFFFF" stop-opacity="0"/></linearGradient><mask id="master_svg7_2233_11266/1678_14750" style="mask-type:alpha" maskUnits="objectBoundingBox"><g transform="matrix(0.9186264276504517,-0.3951271176338196,0.3951271176338196,0.9186264276504517,-23.602771997451782,9.391559779644012)"><rect x="11" y="62" width="87.19554138183594" height="19.65396499633789" rx="0" fill="url(#master_svg6_1678_14745)" fill-opacity="1"/></g></mask></defs><g clip-path="url(#master_svg0_2233_11265)"><g><g><g filter="url(#master_svg1_2233_11266/1678_14765)"><ellipse cx="54.00000190734863" cy="54" rx="27" ry="27" fill="#FFFFFF" fill-opacity="1"/><path d="M81.00000190734863,54Q81.00000190734863,54.662800000000004,80.96750190734863,55.324799999999996Q80.93500190734864,55.9868,80.87000190734864,56.6465Q80.80500190734864,57.3061,80.70780190734862,57.9617Q80.61050190734863,58.6174,80.48120190734863,59.2674Q80.35190190734863,59.9175,80.19080190734863,60.5605Q80.02980190734863,61.2034,79.83740190734864,61.8377Q79.64500190734864,62.472,79.42170190734863,63.096Q79.19840190734863,63.7201,78.94470190734863,64.3324Q78.69110190734864,64.9448,78.40770190734864,65.544Q78.12430190734864,66.14320000000001,77.81190190734864,66.7277Q77.49940190734864,67.3123,77.15870190734864,67.8808Q76.81790190734864,68.4493,76.44970190734864,69.0004Q76.08140190734863,69.5515,75.68660190734863,70.0839Q75.29180190734863,70.61619999999999,74.87130190734862,71.1286Q74.45080190734863,71.64099999999999,74.00570190734862,72.13210000000001Q73.56060190734863,72.6232,73.09190190734864,73.09190000000001Q72.62320190734863,73.5606,72.13210190734864,74.00569999999999Q71.64100190734862,74.4508,71.12860190734864,74.87129999999999Q70.61630190734863,75.2918,70.08390190734863,75.6866Q69.55150190734864,76.0814,69.00040190734863,76.4497Q68.44930190734863,76.81790000000001,67.88080190734863,77.15870000000001Q67.31230190734863,77.49940000000001,66.72770190734863,77.81190000000001Q66.14320190734864,78.1243,65.54400190734863,78.4077Q64.94480190734863,78.6911,64.33240190734864,78.9447Q63.720101907348635,79.19839999999999,63.09600190734863,79.4217Q62.472001907348634,79.64500000000001,61.83770190734863,79.8374Q61.203401907348635,80.0298,60.56050190734863,80.1908Q59.91750190734863,80.3519,59.267401907348635,80.4812Q58.617401907348636,80.6105,57.96170190734863,80.70779999999999Q57.30610190734863,80.805,56.646501907348636,80.87Q55.986801907348635,80.935,55.32480190734863,80.9675Q54.66280190734864,81,54.00000190734863,81Q53.33720190734863,81,52.67520190734864,80.9675Q52.01320190734863,80.935,51.35350190734863,80.87Q50.69390190734863,80.805,50.03830190734863,80.70779999999999Q49.38260190734863,80.6105,48.73260190734864,80.4812Q48.08250190734863,80.3519,47.43950190734863,80.1908Q46.79660190734863,80.0298,46.162301907348635,79.8374Q45.52800190734863,79.64500000000001,44.90400190734863,79.4217Q44.27990190734863,79.19839999999999,43.66750190734864,78.9447Q43.05520190734863,78.6911,42.456001907348636,78.4077Q41.85680190734863,78.1243,41.272301907348634,77.81190000000001Q40.68770190734863,77.49940000000001,40.11920190734863,77.15870000000001Q39.55070190734863,76.81790000000001,38.999601907348634,76.4497Q38.44850190734863,76.0814,37.91610190734863,75.6866Q37.38370190734863,75.2918,36.871381907348635,74.87129999999999Q36.359021907348634,74.4508,35.867911907348635,74.00569999999999Q35.37679190734863,73.5606,34.90812190734863,73.09190000000001Q34.43944190734863,72.6232,33.994321907348635,72.13210000000001Q33.54920190734863,71.64099999999999,33.128721907348634,71.1286Q32.70823190734863,70.6163,32.313401907348634,70.0839Q31.918561907348632,69.5515,31.550321907348632,69.0004Q31.182081907348632,68.4493,30.841331907348632,67.8808Q30.500571907348633,67.3123,30.188131907348634,66.7277Q29.875681907348632,66.14320000000001,29.59229190734863,65.544Q29.308901907348634,64.9448,29.055251907348634,64.3324Q28.801601907348633,63.7201,28.578311907348635,63.096Q28.355021907348632,62.472,28.162611907348634,61.8377Q27.970207907348634,61.2034,27.809157907348634,60.5605Q27.64810790734863,59.9175,27.518798907348632,59.2674Q27.389490907348634,58.6174,27.292235907348633,57.9617Q27.194980907348633,57.3061,27.130013907348633,56.6465Q27.06504730734863,55.9868,27.032524607348634,55.324799999999996Q27.000001907348633,54.662800000000004,27.000001907348633,54Q27.000001907348633,53.337199999999996,27.032524607348634,52.675200000000004Q27.06504730734863,52.0132,27.130013907348633,51.3535Q27.194980907348633,50.6939,27.292235907348633,50.0383Q27.389490907348634,49.3826,27.518798907348632,48.732600000000005Q27.64810790734863,48.082499999999996,27.809157907348634,47.439499999999995Q27.970207907348634,46.7966,28.162611907348634,46.1623Q28.355021907348632,45.528,28.578311907348635,44.903999999999996Q28.801601907348633,44.2799,29.055251907348634,43.667500000000004Q29.308901907348634,43.0552,29.59229190734863,42.456Q29.875681907348632,41.8568,30.188131907348634,41.2723Q30.500571907348633,40.6877,30.841331907348632,40.1192Q31.182081907348632,39.5507,31.550321907348632,38.9996Q31.918561907348632,38.448499999999996,32.313401907348634,37.9161Q32.70823190734863,37.3837,33.128721907348634,36.87138Q33.54920190734863,36.35902,33.994321907348635,35.86791Q34.43944190734863,35.37679,34.90812190734863,34.90812Q35.37679190734863,34.43944,35.867911907348635,33.99432Q36.359021907348634,33.5492,36.871381907348635,33.12872Q37.38370190734863,32.70823,37.91610190734863,32.3134Q38.44850190734863,31.91856,38.999601907348634,31.55032Q39.55070190734863,31.18208,40.11920190734863,30.84133Q40.68770190734863,30.50057,41.272301907348634,30.18813Q41.85680190734863,29.87568,42.456001907348636,29.59229Q43.05520190734863,29.3089,43.66750190734864,29.05525Q44.27990190734863,28.8016,44.90400190734863,28.578310000000002Q45.52800190734863,28.35502,46.162301907348635,28.16261Q46.79660190734863,27.970206,47.43950190734863,27.809156Q48.08250190734863,27.648106,48.73260190734864,27.518797Q49.38260190734863,27.389489,50.03830190734863,27.292234Q50.69390190734863,27.194979,51.35350190734863,27.130012Q52.01320190734863,27.0650454,52.67520190734864,27.0325227Q53.33720190734863,27,54.00000190734863,27Q54.66280190734864,27,55.32480190734863,27.0325227Q55.986801907348635,27.0650454,56.646501907348636,27.130012Q57.30610190734863,27.194979,57.96170190734863,27.292234Q58.617401907348636,27.389489,59.267401907348635,27.518797Q59.91750190734863,27.648106,60.56050190734863,27.809156Q61.203401907348635,27.970206,61.83770190734863,28.16261Q62.472001907348634,28.35502,63.09600190734863,28.578310000000002Q63.720101907348635,28.8016,64.33240190734864,29.05525Q64.94480190734863,29.3089,65.54400190734863,29.59229Q66.14320190734864,29.87568,66.72770190734863,30.18813Q67.31230190734863,30.50057,67.88080190734863,30.84133Q68.44930190734863,31.18208,69.00040190734863,31.55032Q69.55150190734864,31.91856,70.08390190734863,32.3134Q70.61620190734862,32.70823,71.12860190734864,33.12872Q71.64100190734862,33.5492,72.13210190734864,33.99432Q72.62320190734863,34.43944,73.09190190734864,34.90812Q73.56060190734863,35.37679,74.00570190734862,35.86791Q74.45080190734863,36.35902,74.87130190734862,36.87138Q75.29180190734863,37.3837,75.68660190734863,37.9161Q76.08140190734863,38.448499999999996,76.44970190734864,38.9996Q76.81790190734864,39.5507,77.15870190734864,40.1192Q77.49940190734864,40.6877,77.81190190734864,41.2723Q78.12430190734864,41.8568,78.40770190734864,42.456Q78.69110190734864,43.0552,78.94470190734863,43.667500000000004Q79.19840190734863,44.2799,79.42170190734863,44.903999999999996Q79.64500190734864,45.528,79.83740190734864,46.1623Q80.02980190734863,46.7966,80.19080190734863,47.439499999999995Q80.35190190734863,48.082499999999996,80.48120190734863,48.732600000000005Q80.61050190734863,49.3826,80.70780190734862,50.0383Q80.80500190734864,50.6939,80.87000190734864,51.3535Q80.93500190734864,52.0132,80.96750190734863,52.675200000000004Q81.00000190734863,53.337199999999996,81.00000190734863,54ZM80.04310190734864,54Q80.04310190734864,53.3607,80.01170190734862,52.7221Q79.98040190734864,52.083600000000004,79.91770190734863,51.4473Q79.85500190734862,50.811099999999996,79.76120190734864,50.1787Q79.66740190734863,49.5463,79.54270190734863,48.919200000000004Q79.41800190734864,48.2922,79.26260190734862,47.672Q79.10730190734864,47.0519,78.92170190734863,46.4401Q78.73610190734863,45.8283,78.52070190734864,45.226299999999995Q78.30530190734864,44.6244,78.06070190734863,44.033699999999996Q77.81600190734864,43.4431,77.54270190734863,42.8651Q77.26930190734863,42.2872,76.96800190734864,41.7234Q76.66660190734864,41.1595,76.33790190734862,40.6112Q76.00920190734863,40.062799999999996,75.65400190734863,39.5312Q75.29890190734864,38.9996,74.91800190734864,38.4861Q74.53720190734863,37.9726,74.13160190734862,37.4784Q73.72600190734863,36.98422,73.29670190734863,36.51052Q72.86730190734863,36.03681,72.41530190734863,35.58474Q71.96320190734863,35.13267,71.48950190734863,34.70333Q71.01580190734863,34.27399,70.52160190734864,33.8684Q70.02740190734863,33.46282,69.51390190734864,33.08198Q69.00030190734864,32.70113,68.46880190734863,32.34595Q67.93720190734862,31.99076,67.38880190734864,31.66208Q66.84050190734862,31.3334,66.27660190734863,31.03203Q65.71280190734863,30.73065,65.13490190734863,30.45731Q64.55690190734863,30.18396,63.96630190734863,29.9393Q63.37560190734863,29.69465,62.77370190734863,29.47927Q62.171701907348634,29.26388,61.55990190734863,29.0783Q60.94810190734863,28.89271,60.328001907348636,28.73737Q59.70780190734863,28.58203,59.080801907348636,28.4573Q58.45370190734863,28.33258,57.821301907348634,28.23877Q57.18890190734864,28.14496,56.552701907348634,28.0823Q55.91640190734863,28.01963,55.277901907348635,27.988262Q54.63930190734863,27.956892,54.00000190734863,27.956892Q53.360701907348634,27.956892,52.72210190734863,27.988262Q52.08360190734864,28.01963,51.44730190734863,28.0823Q50.81110190734863,28.14496,50.17870190734863,28.23877Q49.546301907348635,28.33258,48.919201907348636,28.4573Q48.292201907348634,28.58203,47.67200190734863,28.73737Q47.051901907348636,28.89271,46.440101907348634,29.0783Q45.82830190734863,29.26388,45.22630190734863,29.47927Q44.624401907348634,29.69465,44.03370190734863,29.93931Q43.443101907348634,30.18396,42.86510190734863,30.45731Q42.28720190734863,30.73065,41.72340190734863,31.03203Q41.159501907348634,31.3334,40.61120190734863,31.66208Q40.06280190734863,31.99076,39.53120190734863,32.34595Q38.999601907348634,32.70113,38.48610190734863,33.08198Q37.97260190734863,33.46282,37.47840190734863,33.86841Q36.98422190734863,34.27399,36.51052190734863,34.70333Q36.036811907348635,35.13267,35.58474190734863,35.58474Q35.13267190734863,36.03681,34.703331907348634,36.51052Q34.27399190734863,36.98422,33.868401907348634,37.4784Q33.46282190734863,37.9726,33.081981907348634,38.4861Q32.70113190734863,38.9996,32.345951907348635,39.5312Q31.990761907348634,40.062799999999996,31.662081907348632,40.6112Q31.333401907348634,41.1595,31.03203190734863,41.7234Q30.730651907348634,42.2872,30.457311907348632,42.8651Q30.183961907348632,43.4431,29.939301907348632,44.033699999999996Q29.694651907348632,44.6244,29.479271907348632,45.226299999999995Q29.263881907348633,45.8283,29.07830190734863,46.4401Q28.892711907348634,47.0519,28.73737190734863,47.672Q28.582031907348632,48.2922,28.457301907348633,48.919200000000004Q28.332581907348633,49.5463,28.23877190734863,50.1787Q28.144961907348634,50.811099999999996,28.082301907348633,51.4473Q28.019631907348632,52.083600000000004,27.98826390734863,52.7221Q27.956893907348633,53.3607,27.956893907348633,54Q27.956893907348633,54.6393,27.98826390734863,55.2779Q28.019631907348632,55.916399999999996,28.082301907348633,56.5527Q28.144961907348634,57.188900000000004,28.23877190734863,57.8213Q28.332581907348633,58.4537,28.457301907348633,59.0808Q28.582031907348632,59.7078,28.73737190734863,60.328Q28.892711907348634,60.9481,29.07830190734863,61.5599Q29.263881907348633,62.1717,29.479271907348632,62.7737Q29.694651907348632,63.3756,29.939311907348632,63.9663Q30.183961907348632,64.5569,30.457311907348632,65.1349Q30.730651907348634,65.7128,31.03203190734863,66.2766Q31.333401907348634,66.84049999999999,31.662081907348632,67.3888Q31.990761907348634,67.93719999999999,32.345951907348635,68.4688Q32.70113190734863,69.00030000000001,33.081981907348634,69.5139Q33.46282190734863,70.0274,33.86841190734863,70.5216Q34.27399190734863,71.0158,34.703331907348634,71.48949999999999Q35.13267190734863,71.9632,35.58474190734863,72.4153Q36.036811907348635,72.8673,36.51052190734863,73.2967Q36.98422190734863,73.726,37.47840190734863,74.13159999999999Q37.97260190734863,74.5372,38.48610190734863,74.918Q38.999601907348634,75.2989,39.53120190734863,75.654Q40.06280190734863,76.00919999999999,40.61120190734863,76.33789999999999Q41.159501907348634,76.6666,41.72340190734863,76.968Q42.28720190734863,77.2693,42.86510190734863,77.5427Q43.443101907348634,77.816,44.03370190734863,78.0607Q44.624401907348634,78.3053,45.22630190734863,78.5207Q45.82830190734863,78.7361,46.440101907348634,78.9217Q47.051901907348636,79.10730000000001,47.67200190734863,79.26259999999999Q48.292201907348634,79.418,48.919201907348636,79.5427Q49.546301907348635,79.6674,50.17870190734863,79.7612Q50.81110190734863,79.85499999999999,51.44730190734863,79.9177Q52.08360190734864,79.9804,52.72210190734863,80.01169999999999Q53.360701907348634,80.04310000000001,54.00000190734863,80.04310000000001Q54.63930190734863,80.04310000000001,55.277901907348635,80.01169999999999Q55.91640190734863,79.9804,56.552701907348634,79.9177Q57.18890190734864,79.85499999999999,57.821301907348634,79.7612Q58.45370190734863,79.6674,59.080801907348636,79.5427Q59.70780190734863,79.418,60.328001907348636,79.26259999999999Q60.94810190734863,79.10730000000001,61.55990190734863,78.9217Q62.171701907348634,78.7361,62.77370190734863,78.5207Q63.37560190734863,78.3053,63.96630190734863,78.0607Q64.55690190734863,77.816,65.13490190734863,77.5427Q65.71280190734863,77.2693,66.27660190734863,76.968Q66.84050190734862,76.6666,67.38880190734864,76.33789999999999Q67.93720190734862,76.00919999999999,68.46880190734863,75.654Q69.00030190734864,75.2989,69.51390190734864,74.918Q70.02740190734863,74.5372,70.52160190734864,74.13159999999999Q71.01580190734863,73.726,71.48950190734863,73.2967Q71.96320190734863,72.8673,72.41530190734863,72.4153Q72.86730190734863,71.9632,73.29670190734863,71.48949999999999Q73.72600190734863,71.0158,74.13160190734862,70.5216Q74.53720190734863,70.0274,74.91800190734864,69.5139Q75.29890190734864,69.00030000000001,75.65400190734863,68.4688Q76.00920190734863,67.93719999999999,76.33790190734862,67.3888Q76.66660190734864,66.84049999999999,76.96800190734864,66.2766Q77.26930190734863,65.7128,77.54270190734863,65.1349Q77.81600190734864,64.5569,78.06070190734863,63.9663Q78.30530190734864,63.3756,78.52070190734864,62.7737Q78.73610190734863,62.1717,78.92170190734863,61.5599Q79.10730190734864,60.9481,79.26260190734862,60.328Q79.41800190734864,59.7078,79.54270190734863,59.0808Q79.66740190734863,58.4537,79.76120190734864,57.8213Q79.85500190734862,57.188900000000004,79.91770190734863,56.5527Q79.98040190734864,55.916399999999996,80.01170190734862,55.2779Q80.04310190734864,54.6393,80.04310190734864,54Z" fill="#CDD0DC" fill-opacity="1"/></g><g><path d="M81.00000190734863,54Q81.00000190734863,54.662800000000004,80.96750190734863,55.324799999999996Q80.93500190734864,55.9868,80.87000190734864,56.6465Q80.80500190734864,57.3061,80.70780190734862,57.9617Q80.61050190734863,58.6174,80.48120190734863,59.2674Q80.35190190734863,59.9175,80.19080190734863,60.5605Q80.02980190734863,61.2034,79.83740190734864,61.8377Q79.64500190734864,62.472,79.42170190734863,63.096Q79.19840190734863,63.7201,78.94470190734863,64.3324Q78.69110190734864,64.9448,78.40770190734864,65.544Q78.12430190734864,66.14320000000001,77.81190190734864,66.7277Q77.49940190734864,67.3123,77.15870190734864,67.8808Q76.81790190734864,68.4493,76.44970190734864,69.0004Q76.08140190734863,69.5515,75.68660190734863,70.0839Q75.29180190734863,70.61619999999999,74.87130190734862,71.1286Q74.45080190734863,71.64099999999999,74.00570190734862,72.13210000000001Q73.56060190734863,72.6232,73.09190190734864,73.09190000000001Q72.62320190734863,73.5606,72.13210190734864,74.00569999999999Q71.64100190734862,74.4508,71.12860190734864,74.87129999999999Q70.61630190734863,75.2918,70.08390190734863,75.6866Q69.55150190734864,76.0814,69.00040190734863,76.4497Q68.44930190734863,76.81790000000001,67.88080190734863,77.15870000000001Q67.31230190734863,77.49940000000001,66.72770190734863,77.81190000000001Q66.14320190734864,78.1243,65.54400190734863,78.4077Q64.94480190734863,78.6911,64.33240190734864,78.9447Q63.720101907348635,79.19839999999999,63.09600190734863,79.4217Q62.472001907348634,79.64500000000001,61.83770190734863,79.8374Q61.203401907348635,80.0298,60.56050190734863,80.1908Q59.91750190734863,80.3519,59.267401907348635,80.4812Q58.617401907348636,80.6105,57.96170190734863,80.70779999999999Q57.30610190734863,80.805,56.646501907348636,80.87Q55.986801907348635,80.935,55.32480190734863,80.9675Q54.66280190734864,81,54.00000190734863,81Q53.33720190734863,81,52.67520190734864,80.9675Q52.01320190734863,80.935,51.35350190734863,80.87Q50.69390190734863,80.805,50.03830190734863,80.70779999999999Q49.38260190734863,80.6105,48.73260190734864,80.4812Q48.08250190734863,80.3519,47.43950190734863,80.1908Q46.79660190734863,80.0298,46.162301907348635,79.8374Q45.52800190734863,79.64500000000001,44.90400190734863,79.4217Q44.27990190734863,79.19839999999999,43.66750190734864,78.9447Q43.05520190734863,78.6911,42.456001907348636,78.4077Q41.85680190734863,78.1243,41.272301907348634,77.81190000000001Q40.68770190734863,77.49940000000001,40.11920190734863,77.15870000000001Q39.55070190734863,76.81790000000001,38.999601907348634,76.4497Q38.44850190734863,76.0814,37.91610190734863,75.6866Q37.38370190734863,75.2918,36.871381907348635,74.87129999999999Q36.359021907348634,74.4508,35.867911907348635,74.00569999999999Q35.37679190734863,73.5606,34.90812190734863,73.09190000000001Q34.43944190734863,72.6232,33.994321907348635,72.13210000000001Q33.54920190734863,71.64099999999999,33.128721907348634,71.1286Q32.70823190734863,70.6163,32.313401907348634,70.0839Q31.918561907348632,69.5515,31.550321907348632,69.0004Q31.182081907348632,68.4493,30.841331907348632,67.8808Q30.500571907348633,67.3123,30.188131907348634,66.7277Q29.875681907348632,66.14320000000001,29.59229190734863,65.544Q29.308901907348634,64.9448,29.055251907348634,64.3324Q28.801601907348633,63.7201,28.578311907348635,63.096Q28.355021907348632,62.472,28.162611907348634,61.8377Q27.970207907348634,61.2034,27.809157907348634,60.5605Q27.64810790734863,59.9175,27.518798907348632,59.2674Q27.389490907348634,58.6174,27.292235907348633,57.9617Q27.194980907348633,57.3061,27.130013907348633,56.6465Q27.06504730734863,55.9868,27.032524607348634,55.324799999999996Q27.000001907348633,54.662800000000004,27.000001907348633,54Q27.000001907348633,53.337199999999996,27.032524607348634,52.675200000000004Q27.06504730734863,52.0132,27.130013907348633,51.3535Q27.194980907348633,50.6939,27.292235907348633,50.0383Q27.389490907348634,49.3826,27.518798907348632,48.732600000000005Q27.64810790734863,48.082499999999996,27.809157907348634,47.439499999999995Q27.970207907348634,46.7966,28.162611907348634,46.1623Q28.355021907348632,45.528,28.578311907348635,44.903999999999996Q28.801601907348633,44.2799,29.055251907348634,43.667500000000004Q29.308901907348634,43.0552,29.59229190734863,42.456Q29.875681907348632,41.8568,30.188131907348634,41.2723Q30.500571907348633,40.6877,30.841331907348632,40.1192Q31.182081907348632,39.5507,31.550321907348632,38.9996Q31.918561907348632,38.448499999999996,32.313401907348634,37.9161Q32.70823190734863,37.3837,33.128721907348634,36.87138Q33.54920190734863,36.35902,33.994321907348635,35.86791Q34.43944190734863,35.37679,34.90812190734863,34.90812Q35.37679190734863,34.43944,35.867911907348635,33.99432Q36.359021907348634,33.5492,36.871381907348635,33.12872Q37.38370190734863,32.70823,37.91610190734863,32.3134Q38.44850190734863,31.91856,38.999601907348634,31.55032Q39.55070190734863,31.18208,40.11920190734863,30.84133Q40.68770190734863,30.50057,41.272301907348634,30.18813Q41.85680190734863,29.87568,42.456001907348636,29.59229Q43.05520190734863,29.3089,43.66750190734864,29.05525Q44.27990190734863,28.8016,44.90400190734863,28.578310000000002Q45.52800190734863,28.35502,46.162301907348635,28.16261Q46.79660190734863,27.970206,47.43950190734863,27.809156Q48.08250190734863,27.648106,48.73260190734864,27.518797Q49.38260190734863,27.389489,50.03830190734863,27.292234Q50.69390190734863,27.194979,51.35350190734863,27.130012Q52.01320190734863,27.0650454,52.67520190734864,27.0325227Q53.33720190734863,27,54.00000190734863,27Q54.66280190734864,27,55.32480190734863,27.0325227Q55.986801907348635,27.0650454,56.646501907348636,27.130012Q57.30610190734863,27.194979,57.96170190734863,27.292234Q58.617401907348636,27.389489,59.267401907348635,27.518797Q59.91750190734863,27.648106,60.56050190734863,27.809156Q61.203401907348635,27.970206,61.83770190734863,28.16261Q62.472001907348634,28.35502,63.09600190734863,28.578310000000002Q63.720101907348635,28.8016,64.33240190734864,29.05525Q64.94480190734863,29.3089,65.54400190734863,29.59229Q66.14320190734864,29.87568,66.72770190734863,30.18813Q67.31230190734863,30.50057,67.88080190734863,30.84133Q68.44930190734863,31.18208,69.00040190734863,31.55032Q69.55150190734864,31.91856,70.08390190734863,32.3134Q70.61620190734862,32.70823,71.12860190734864,33.12872Q71.64100190734862,33.5492,72.13210190734864,33.99432Q72.62320190734863,34.43944,73.09190190734864,34.90812Q73.56060190734863,35.37679,74.00570190734862,35.86791Q74.45080190734863,36.35902,74.87130190734862,36.87138Q75.29180190734863,37.3837,75.68660190734863,37.9161Q76.08140190734863,38.448499999999996,76.44970190734864,38.9996Q76.81790190734864,39.5507,77.15870190734864,40.1192Q77.49940190734864,40.6877,77.81190190734864,41.2723Q78.12430190734864,41.8568,78.40770190734864,42.456Q78.69110190734864,43.0552,78.94470190734863,43.667500000000004Q79.19840190734863,44.2799,79.42170190734863,44.903999999999996Q79.64500190734864,45.528,79.83740190734864,46.1623Q80.02980190734863,46.7966,80.19080190734863,47.439499999999995Q80.35190190734863,48.082499999999996,80.48120190734863,48.732600000000005Q80.61050190734863,49.3826,80.70780190734862,50.0383Q80.80500190734864,50.6939,80.87000190734864,51.3535Q80.93500190734864,52.0132,80.96750190734863,52.675200000000004Q81.00000190734863,53.337199999999996,81.00000190734863,54ZM80.04310190734864,54Q80.04310190734864,53.3607,80.01170190734862,52.7221Q79.98040190734864,52.083600000000004,79.91770190734863,51.4473Q79.85500190734862,50.811099999999996,79.76120190734864,50.1787Q79.66740190734863,49.5463,79.54270190734863,48.919200000000004Q79.41800190734864,48.2922,79.26260190734862,47.672Q79.10730190734864,47.0519,78.92170190734863,46.4401Q78.73610190734863,45.8283,78.52070190734864,45.226299999999995Q78.30530190734864,44.6244,78.06070190734863,44.033699999999996Q77.81600190734864,43.4431,77.54270190734863,42.8651Q77.26930190734863,42.2872,76.96800190734864,41.7234Q76.66660190734864,41.1595,76.33790190734862,40.6112Q76.00920190734863,40.062799999999996,75.65400190734863,39.5312Q75.29890190734864,38.9996,74.91800190734864,38.4861Q74.53720190734863,37.9726,74.13160190734862,37.4784Q73.72600190734863,36.98422,73.29670190734863,36.51052Q72.86730190734863,36.03681,72.41530190734863,35.58474Q71.96320190734863,35.13267,71.48950190734863,34.70333Q71.01580190734863,34.27399,70.52160190734864,33.8684Q70.02740190734863,33.46282,69.51390190734864,33.08198Q69.00030190734864,32.70113,68.46880190734863,32.34595Q67.93720190734862,31.99076,67.38880190734864,31.66208Q66.84050190734862,31.3334,66.27660190734863,31.03203Q65.71280190734863,30.73065,65.13490190734863,30.45731Q64.55690190734863,30.18396,63.96630190734863,29.9393Q63.37560190734863,29.69465,62.77370190734863,29.47927Q62.171701907348634,29.26388,61.55990190734863,29.0783Q60.94810190734863,28.89271,60.328001907348636,28.73737Q59.70780190734863,28.58203,59.080801907348636,28.4573Q58.45370190734863,28.33258,57.821301907348634,28.23877Q57.18890190734864,28.14496,56.552701907348634,28.0823Q55.91640190734863,28.01963,55.277901907348635,27.988262Q54.63930190734863,27.956892,54.00000190734863,27.956892Q53.360701907348634,27.956892,52.72210190734863,27.988262Q52.08360190734864,28.01963,51.44730190734863,28.0823Q50.81110190734863,28.14496,50.17870190734863,28.23877Q49.546301907348635,28.33258,48.919201907348636,28.4573Q48.292201907348634,28.58203,47.67200190734863,28.73737Q47.051901907348636,28.89271,46.440101907348634,29.0783Q45.82830190734863,29.26388,45.22630190734863,29.47927Q44.624401907348634,29.69465,44.03370190734863,29.93931Q43.443101907348634,30.18396,42.86510190734863,30.45731Q42.28720190734863,30.73065,41.72340190734863,31.03203Q41.159501907348634,31.3334,40.61120190734863,31.66208Q40.06280190734863,31.99076,39.53120190734863,32.34595Q38.999601907348634,32.70113,38.48610190734863,33.08198Q37.97260190734863,33.46282,37.47840190734863,33.86841Q36.98422190734863,34.27399,36.51052190734863,34.70333Q36.036811907348635,35.13267,35.58474190734863,35.58474Q35.13267190734863,36.03681,34.703331907348634,36.51052Q34.27399190734863,36.98422,33.868401907348634,37.4784Q33.46282190734863,37.9726,33.081981907348634,38.4861Q32.70113190734863,38.9996,32.345951907348635,39.5312Q31.990761907348634,40.062799999999996,31.662081907348632,40.6112Q31.333401907348634,41.1595,31.03203190734863,41.7234Q30.730651907348634,42.2872,30.457311907348632,42.8651Q30.183961907348632,43.4431,29.939301907348632,44.033699999999996Q29.694651907348632,44.6244,29.479271907348632,45.226299999999995Q29.263881907348633,45.8283,29.07830190734863,46.4401Q28.892711907348634,47.0519,28.73737190734863,47.672Q28.582031907348632,48.2922,28.457301907348633,48.919200000000004Q28.332581907348633,49.5463,28.23877190734863,50.1787Q28.144961907348634,50.811099999999996,28.082301907348633,51.4473Q28.019631907348632,52.083600000000004,27.98826390734863,52.7221Q27.956893907348633,53.3607,27.956893907348633,54Q27.956893907348633,54.6393,27.98826390734863,55.2779Q28.019631907348632,55.916399999999996,28.082301907348633,56.5527Q28.144961907348634,57.188900000000004,28.23877190734863,57.8213Q28.332581907348633,58.4537,28.457301907348633,59.0808Q28.582031907348632,59.7078,28.73737190734863,60.328Q28.892711907348634,60.9481,29.07830190734863,61.5599Q29.263881907348633,62.1717,29.479271907348632,62.7737Q29.694651907348632,63.3756,29.939311907348632,63.9663Q30.183961907348632,64.5569,30.457311907348632,65.1349Q30.730651907348634,65.7128,31.03203190734863,66.2766Q31.333401907348634,66.84049999999999,31.662081907348632,67.3888Q31.990761907348634,67.93719999999999,32.345951907348635,68.4688Q32.70113190734863,69.00030000000001,33.081981907348634,69.5139Q33.46282190734863,70.0274,33.86841190734863,70.5216Q34.27399190734863,71.0158,34.703331907348634,71.48949999999999Q35.13267190734863,71.9632,35.58474190734863,72.4153Q36.036811907348635,72.8673,36.51052190734863,73.2967Q36.98422190734863,73.726,37.47840190734863,74.13159999999999Q37.97260190734863,74.5372,38.48610190734863,74.918Q38.999601907348634,75.2989,39.53120190734863,75.654Q40.06280190734863,76.00919999999999,40.61120190734863,76.33789999999999Q41.159501907348634,76.6666,41.72340190734863,76.968Q42.28720190734863,77.2693,42.86510190734863,77.5427Q43.443101907348634,77.816,44.03370190734863,78.0607Q44.624401907348634,78.3053,45.22630190734863,78.5207Q45.82830190734863,78.7361,46.440101907348634,78.9217Q47.051901907348636,79.10730000000001,47.67200190734863,79.26259999999999Q48.292201907348634,79.418,48.919201907348636,79.5427Q49.546301907348635,79.6674,50.17870190734863,79.7612Q50.81110190734863,79.85499999999999,51.44730190734863,79.9177Q52.08360190734864,79.9804,52.72210190734863,80.01169999999999Q53.360701907348634,80.04310000000001,54.00000190734863,80.04310000000001Q54.63930190734863,80.04310000000001,55.277901907348635,80.01169999999999Q55.91640190734863,79.9804,56.552701907348634,79.9177Q57.18890190734864,79.85499999999999,57.821301907348634,79.7612Q58.45370190734863,79.6674,59.080801907348636,79.5427Q59.70780190734863,79.418,60.328001907348636,79.26259999999999Q60.94810190734863,79.10730000000001,61.55990190734863,78.9217Q62.171701907348634,78.7361,62.77370190734863,78.5207Q63.37560190734863,78.3053,63.96630190734863,78.0607Q64.55690190734863,77.816,65.13490190734863,77.5427Q65.71280190734863,77.2693,66.27660190734863,76.968Q66.84050190734862,76.6666,67.38880190734864,76.33789999999999Q67.93720190734862,76.00919999999999,68.46880190734863,75.654Q69.00030190734864,75.2989,69.51390190734864,74.918Q70.02740190734863,74.5372,70.52160190734864,74.13159999999999Q71.01580190734863,73.726,71.48950190734863,73.2967Q71.96320190734863,72.8673,72.41530190734863,72.4153Q72.86730190734863,71.9632,73.29670190734863,71.48949999999999Q73.72600190734863,71.0158,74.13160190734862,70.5216Q74.53720190734863,70.0274,74.91800190734864,69.5139Q75.29890190734864,69.00030000000001,75.65400190734863,68.4688Q76.00920190734863,67.93719999999999,76.33790190734862,67.3888Q76.66660190734864,66.84049999999999,76.96800190734864,66.2766Q77.26930190734863,65.7128,77.54270190734863,65.1349Q77.81600190734864,64.5569,78.06070190734863,63.9663Q78.30530190734864,63.3756,78.52070190734864,62.7737Q78.73610190734863,62.1717,78.92170190734863,61.5599Q79.10730190734864,60.9481,79.26260190734862,60.328Q79.41800190734864,59.7078,79.54270190734863,59.0808Q79.66740190734863,58.4537,79.76120190734864,57.8213Q79.85500190734862,57.188900000000004,79.91770190734863,56.5527Q79.98040190734864,55.916399999999996,80.01170190734862,55.2779Q80.04310190734864,54.6393,80.04310190734864,54Z" fill="#CDD0DC" fill-opacity="1"/></g><g mask="url(#master_svg3_2233_11266/1678_14762)"><g><path d="M79.93090762939454,53.902C81.08670762939454,68.78139999999999,67.55440762939453,80,53.00000762939453,80C62.47784762939453,77.87440000000001,73.22710762939454,70.6708,74.49850762939454,57.917100000000005C75.76990762939454,45.1633,70.91540762939454,37.48744,69.75960762939454,33C72.30240762939454,35.71608,78.31280762939453,38.550200000000004,79.93090762939454,53.902Z" fill="#F3F0FF" fill-opacity="1"/></g></g><g mask="url(#master_svg5_2233_11266/1678_14758)"><g><path d="M81.00000190734863,54Q81.00000190734863,54.662800000000004,80.96750190734863,55.324799999999996Q80.93500190734864,55.9868,80.87000190734864,56.6465Q80.80500190734864,57.3061,80.70780190734862,57.9617Q80.61050190734863,58.6174,80.48120190734863,59.2674Q80.35190190734863,59.9175,80.19080190734863,60.5605Q80.02980190734863,61.2034,79.83740190734864,61.8377Q79.64500190734864,62.472,79.42170190734863,63.096Q79.19840190734863,63.7201,78.94470190734863,64.3324Q78.69110190734864,64.9448,78.40770190734864,65.544Q78.12430190734864,66.14320000000001,77.81190190734864,66.7277Q77.49940190734864,67.3123,77.15870190734864,67.8808Q76.81790190734864,68.4493,76.44970190734864,69.0004Q76.08140190734863,69.5515,75.68660190734863,70.0839Q75.29180190734863,70.61619999999999,74.87130190734862,71.1286Q74.45080190734863,71.64099999999999,74.00570190734862,72.13210000000001Q73.56060190734863,72.6232,73.09190190734864,73.09190000000001Q72.62320190734863,73.5606,72.13210190734864,74.00569999999999Q71.64100190734862,74.4508,71.12860190734864,74.87129999999999Q70.61630190734863,75.2918,70.08390190734863,75.6866Q69.55150190734864,76.0814,69.00040190734863,76.4497Q68.44930190734863,76.81790000000001,67.88080190734863,77.15870000000001Q67.31230190734863,77.49940000000001,66.72770190734863,77.81190000000001Q66.14320190734864,78.1243,65.54400190734863,78.4077Q64.94480190734863,78.6911,64.33240190734864,78.9447Q63.720101907348635,79.19839999999999,63.09600190734863,79.4217Q62.472001907348634,79.64500000000001,61.83770190734863,79.8374Q61.203401907348635,80.0298,60.56050190734863,80.1908Q59.91750190734863,80.3519,59.267401907348635,80.4812Q58.617401907348636,80.6105,57.96170190734863,80.70779999999999Q57.30610190734863,80.805,56.646501907348636,80.87Q55.986801907348635,80.935,55.32480190734863,80.9675Q54.66280190734864,81,54.00000190734863,81Q53.33720190734863,81,52.67520190734864,80.9675Q52.01320190734863,80.935,51.35350190734863,80.87Q50.69390190734863,80.805,50.03830190734863,80.70779999999999Q49.38260190734863,80.6105,48.73260190734864,80.4812Q48.08250190734863,80.3519,47.43950190734863,80.1908Q46.79660190734863,80.0298,46.162301907348635,79.8374Q45.52800190734863,79.64500000000001,44.90400190734863,79.4217Q44.27990190734863,79.19839999999999,43.66750190734864,78.9447Q43.05520190734863,78.6911,42.456001907348636,78.4077Q41.85680190734863,78.1243,41.272301907348634,77.81190000000001Q40.68770190734863,77.49940000000001,40.11920190734863,77.15870000000001Q39.55070190734863,76.81790000000001,38.999601907348634,76.4497Q38.44850190734863,76.0814,37.91610190734863,75.6866Q37.38370190734863,75.2918,36.871381907348635,74.87129999999999Q36.359021907348634,74.4508,35.867911907348635,74.00569999999999Q35.37679190734863,73.5606,34.90812190734863,73.09190000000001Q34.43944190734863,72.6232,33.994321907348635,72.13210000000001Q33.54920190734863,71.64099999999999,33.128721907348634,71.1286Q32.70823190734863,70.6163,32.313401907348634,70.0839Q31.918561907348632,69.5515,31.550321907348632,69.0004Q31.182081907348632,68.4493,30.841331907348632,67.8808Q30.500571907348633,67.3123,30.188131907348634,66.7277Q29.875681907348632,66.14320000000001,29.59229190734863,65.544Q29.308901907348634,64.9448,29.055251907348634,64.3324Q28.801601907348633,63.7201,28.578311907348635,63.096Q28.355021907348632,62.472,28.162611907348634,61.8377Q27.970207907348634,61.2034,27.809157907348634,60.5605Q27.64810790734863,59.9175,27.518798907348632,59.2674Q27.389490907348634,58.6174,27.292235907348633,57.9617Q27.194980907348633,57.3061,27.130013907348633,56.6465Q27.06504730734863,55.9868,27.032524607348634,55.324799999999996Q27.000001907348633,54.662800000000004,27.000001907348633,54Q27.000001907348633,53.337199999999996,27.032524607348634,52.675200000000004Q27.06504730734863,52.0132,27.130013907348633,51.3535Q27.194980907348633,50.6939,27.292235907348633,50.0383Q27.389490907348634,49.3826,27.518798907348632,48.732600000000005Q27.64810790734863,48.082499999999996,27.809157907348634,47.439499999999995Q27.970207907348634,46.7966,28.162611907348634,46.1623Q28.355021907348632,45.528,28.578311907348635,44.903999999999996Q28.801601907348633,44.2799,29.055251907348634,43.667500000000004Q29.308901907348634,43.0552,29.59229190734863,42.456Q29.875681907348632,41.8568,30.188131907348634,41.2723Q30.500571907348633,40.6877,30.841331907348632,40.1192Q31.182081907348632,39.5507,31.550321907348632,38.9996Q31.918561907348632,38.448499999999996,32.313401907348634,37.9161Q32.70823190734863,37.3837,33.128721907348634,36.87138Q33.54920190734863,36.35902,33.994321907348635,35.86791Q34.43944190734863,35.37679,34.90812190734863,34.90812Q35.37679190734863,34.43944,35.867911907348635,33.99432Q36.359021907348634,33.5492,36.871381907348635,33.12872Q37.38370190734863,32.70823,37.91610190734863,32.3134Q38.44850190734863,31.91856,38.999601907348634,31.55032Q39.55070190734863,31.18208,40.11920190734863,30.84133Q40.68770190734863,30.50057,41.272301907348634,30.18813Q41.85680190734863,29.87568,42.456001907348636,29.59229Q43.05520190734863,29.3089,43.66750190734864,29.05525Q44.27990190734863,28.8016,44.90400190734863,28.578310000000002Q45.52800190734863,28.35502,46.162301907348635,28.16261Q46.79660190734863,27.970206,47.43950190734863,27.809156Q48.08250190734863,27.648106,48.73260190734864,27.518797Q49.38260190734863,27.389489,50.03830190734863,27.292234Q50.69390190734863,27.194979,51.35350190734863,27.130012Q52.01320190734863,27.0650454,52.67520190734864,27.0325227Q53.33720190734863,27,54.00000190734863,27Q54.66280190734864,27,55.32480190734863,27.0325227Q55.986801907348635,27.0650454,56.646501907348636,27.130012Q57.30610190734863,27.194979,57.96170190734863,27.292234Q58.617401907348636,27.389489,59.267401907348635,27.518797Q59.91750190734863,27.648106,60.56050190734863,27.809156Q61.203401907348635,27.970206,61.83770190734863,28.16261Q62.472001907348634,28.35502,63.09600190734863,28.578310000000002Q63.720101907348635,28.8016,64.33240190734864,29.05525Q64.94480190734863,29.3089,65.54400190734863,29.59229Q66.14320190734864,29.87568,66.72770190734863,30.18813Q67.31230190734863,30.50057,67.88080190734863,30.84133Q68.44930190734863,31.18208,69.00040190734863,31.55032Q69.55150190734864,31.91856,70.08390190734863,32.3134Q70.61620190734862,32.70823,71.12860190734864,33.12872Q71.64100190734862,33.5492,72.13210190734864,33.99432Q72.62320190734863,34.43944,73.09190190734864,34.90812Q73.56060190734863,35.37679,74.00570190734862,35.86791Q74.45080190734863,36.35902,74.87130190734862,36.87138Q75.29180190734863,37.3837,75.68660190734863,37.9161Q76.08140190734863,38.448499999999996,76.44970190734864,38.9996Q76.81790190734864,39.5507,77.15870190734864,40.1192Q77.49940190734864,40.6877,77.81190190734864,41.2723Q78.12430190734864,41.8568,78.40770190734864,42.456Q78.69110190734864,43.0552,78.94470190734863,43.667500000000004Q79.19840190734863,44.2799,79.42170190734863,44.903999999999996Q79.64500190734864,45.528,79.83740190734864,46.1623Q80.02980190734863,46.7966,80.19080190734863,47.439499999999995Q80.35190190734863,48.082499999999996,80.48120190734863,48.732600000000005Q80.61050190734863,49.3826,80.70780190734862,50.0383Q80.80500190734864,50.6939,80.87000190734864,51.3535Q80.93500190734864,52.0132,80.96750190734863,52.675200000000004Q81.00000190734863,53.337199999999996,81.00000190734863,54ZM80.04310190734864,54Q80.04310190734864,53.3607,80.01170190734862,52.7221Q79.98040190734864,52.083600000000004,79.91770190734863,51.4473Q79.85500190734862,50.811099999999996,79.76120190734864,50.1787Q79.66740190734863,49.5463,79.54270190734863,48.919200000000004Q79.41800190734864,48.2922,79.26260190734862,47.672Q79.10730190734864,47.0519,78.92170190734863,46.4401Q78.73610190734863,45.8283,78.52070190734864,45.226299999999995Q78.30530190734864,44.6244,78.06070190734863,44.033699999999996Q77.81600190734864,43.4431,77.54270190734863,42.8651Q77.26930190734863,42.2872,76.96800190734864,41.7234Q76.66660190734864,41.1595,76.33790190734862,40.6112Q76.00920190734863,40.062799999999996,75.65400190734863,39.5312Q75.29890190734864,38.9996,74.91800190734864,38.4861Q74.53720190734863,37.9726,74.13160190734862,37.4784Q73.72600190734863,36.98422,73.29670190734863,36.51052Q72.86730190734863,36.03681,72.41530190734863,35.58474Q71.96320190734863,35.13267,71.48950190734863,34.70333Q71.01580190734863,34.27399,70.52160190734864,33.8684Q70.02740190734863,33.46282,69.51390190734864,33.08198Q69.00030190734864,32.70113,68.46880190734863,32.34595Q67.93720190734862,31.99076,67.38880190734864,31.66208Q66.84050190734862,31.3334,66.27660190734863,31.03203Q65.71280190734863,30.73065,65.13490190734863,30.45731Q64.55690190734863,30.18396,63.96630190734863,29.9393Q63.37560190734863,29.69465,62.77370190734863,29.47927Q62.171701907348634,29.26388,61.55990190734863,29.0783Q60.94810190734863,28.89271,60.328001907348636,28.73737Q59.70780190734863,28.58203,59.080801907348636,28.4573Q58.45370190734863,28.33258,57.821301907348634,28.23877Q57.18890190734864,28.14496,56.552701907348634,28.0823Q55.91640190734863,28.01963,55.277901907348635,27.988262Q54.63930190734863,27.956892,54.00000190734863,27.956892Q53.360701907348634,27.956892,52.72210190734863,27.988262Q52.08360190734864,28.01963,51.44730190734863,28.0823Q50.81110190734863,28.14496,50.17870190734863,28.23877Q49.546301907348635,28.33258,48.919201907348636,28.4573Q48.292201907348634,28.58203,47.67200190734863,28.73737Q47.051901907348636,28.89271,46.440101907348634,29.0783Q45.82830190734863,29.26388,45.22630190734863,29.47927Q44.624401907348634,29.69465,44.03370190734863,29.93931Q43.443101907348634,30.18396,42.86510190734863,30.45731Q42.28720190734863,30.73065,41.72340190734863,31.03203Q41.159501907348634,31.3334,40.61120190734863,31.66208Q40.06280190734863,31.99076,39.53120190734863,32.34595Q38.999601907348634,32.70113,38.48610190734863,33.08198Q37.97260190734863,33.46282,37.47840190734863,33.86841Q36.98422190734863,34.27399,36.51052190734863,34.70333Q36.036811907348635,35.13267,35.58474190734863,35.58474Q35.13267190734863,36.03681,34.703331907348634,36.51052Q34.27399190734863,36.98422,33.868401907348634,37.4784Q33.46282190734863,37.9726,33.081981907348634,38.4861Q32.70113190734863,38.9996,32.345951907348635,39.5312Q31.990761907348634,40.062799999999996,31.662081907348632,40.6112Q31.333401907348634,41.1595,31.03203190734863,41.7234Q30.730651907348634,42.2872,30.457311907348632,42.8651Q30.183961907348632,43.4431,29.939301907348632,44.033699999999996Q29.694651907348632,44.6244,29.479271907348632,45.226299999999995Q29.263881907348633,45.8283,29.07830190734863,46.4401Q28.892711907348634,47.0519,28.73737190734863,47.672Q28.582031907348632,48.2922,28.457301907348633,48.919200000000004Q28.332581907348633,49.5463,28.23877190734863,50.1787Q28.144961907348634,50.811099999999996,28.082301907348633,51.4473Q28.019631907348632,52.083600000000004,27.98826390734863,52.7221Q27.956893907348633,53.3607,27.956893907348633,54Q27.956893907348633,54.6393,27.98826390734863,55.2779Q28.019631907348632,55.916399999999996,28.082301907348633,56.5527Q28.144961907348634,57.188900000000004,28.23877190734863,57.8213Q28.332581907348633,58.4537,28.457301907348633,59.0808Q28.582031907348632,59.7078,28.73737190734863,60.328Q28.892711907348634,60.9481,29.07830190734863,61.5599Q29.263881907348633,62.1717,29.479271907348632,62.7737Q29.694651907348632,63.3756,29.939311907348632,63.9663Q30.183961907348632,64.5569,30.457311907348632,65.1349Q30.730651907348634,65.7128,31.03203190734863,66.2766Q31.333401907348634,66.84049999999999,31.662081907348632,67.3888Q31.990761907348634,67.93719999999999,32.345951907348635,68.4688Q32.70113190734863,69.00030000000001,33.081981907348634,69.5139Q33.46282190734863,70.0274,33.86841190734863,70.5216Q34.27399190734863,71.0158,34.703331907348634,71.48949999999999Q35.13267190734863,71.9632,35.58474190734863,72.4153Q36.036811907348635,72.8673,36.51052190734863,73.2967Q36.98422190734863,73.726,37.47840190734863,74.13159999999999Q37.97260190734863,74.5372,38.48610190734863,74.918Q38.999601907348634,75.2989,39.53120190734863,75.654Q40.06280190734863,76.00919999999999,40.61120190734863,76.33789999999999Q41.159501907348634,76.6666,41.72340190734863,76.968Q42.28720190734863,77.2693,42.86510190734863,77.5427Q43.443101907348634,77.816,44.03370190734863,78.0607Q44.624401907348634,78.3053,45.22630190734863,78.5207Q45.82830190734863,78.7361,46.440101907348634,78.9217Q47.051901907348636,79.10730000000001,47.67200190734863,79.26259999999999Q48.292201907348634,79.418,48.919201907348636,79.5427Q49.546301907348635,79.6674,50.17870190734863,79.7612Q50.81110190734863,79.85499999999999,51.44730190734863,79.9177Q52.08360190734864,79.9804,52.72210190734863,80.01169999999999Q53.360701907348634,80.04310000000001,54.00000190734863,80.04310000000001Q54.63930190734863,80.04310000000001,55.277901907348635,80.01169999999999Q55.91640190734863,79.9804,56.552701907348634,79.9177Q57.18890190734864,79.85499999999999,57.821301907348634,79.7612Q58.45370190734863,79.6674,59.080801907348636,79.5427Q59.70780190734863,79.418,60.328001907348636,79.26259999999999Q60.94810190734863,79.10730000000001,61.55990190734863,78.9217Q62.171701907348634,78.7361,62.77370190734863,78.5207Q63.37560190734863,78.3053,63.96630190734863,78.0607Q64.55690190734863,77.816,65.13490190734863,77.5427Q65.71280190734863,77.2693,66.27660190734863,76.968Q66.84050190734862,76.6666,67.38880190734864,76.33789999999999Q67.93720190734862,76.00919999999999,68.46880190734863,75.654Q69.00030190734864,75.2989,69.51390190734864,74.918Q70.02740190734863,74.5372,70.52160190734864,74.13159999999999Q71.01580190734863,73.726,71.48950190734863,73.2967Q71.96320190734863,72.8673,72.41530190734863,72.4153Q72.86730190734863,71.9632,73.29670190734863,71.48949999999999Q73.72600190734863,71.0158,74.13160190734862,70.5216Q74.53720190734863,70.0274,74.91800190734864,69.5139Q75.29890190734864,69.00030000000001,75.65400190734863,68.4688Q76.00920190734863,67.93719999999999,76.33790190734862,67.3888Q76.66660190734864,66.84049999999999,76.96800190734864,66.2766Q77.26930190734863,65.7128,77.54270190734863,65.1349Q77.81600190734864,64.5569,78.06070190734863,63.9663Q78.30530190734864,63.3756,78.52070190734864,62.7737Q78.73610190734863,62.1717,78.92170190734863,61.5599Q79.10730190734864,60.9481,79.26260190734862,60.328Q79.41800190734864,59.7078,79.54270190734863,59.0808Q79.66740190734863,58.4537,79.76120190734864,57.8213Q79.85500190734862,57.188900000000004,79.91770190734863,56.5527Q79.98040190734864,55.916399999999996,80.01170190734862,55.2779Q80.04310190734864,54.6393,80.04310190734864,54Z" fill="#615CED" fill-opacity="1"/></g></g><g transform="matrix(0.719844400882721,-0.6941354274749756,0.6941354274749756,0.719844400882721,-18.342452348709685,38.55329820468069)"><ellipse cx="41.70013380050659" cy="44.44404077529907" rx="3.110023021697998" ry="2.4440407752990723" fill="#CDD0DC" fill-opacity="0.15000000596046448"/><path d="M41.70013077880859,46.88808Q41.852920778808596,46.88808,42.00497077880859,46.876310000000004Q42.157020778808594,46.86454,42.306870778808594,46.841120000000004Q42.456720778808595,46.8177,42.602920778808596,46.78284Q42.74913077880859,46.74799,42.89029077880859,46.70204Q43.031440778808594,46.65609,43.16619077880859,46.59949Q43.30093077880859,46.54289,43.42797077880859,46.47619Q43.555010778808594,46.40948,43.67311077880859,46.33331Q43.791220778808594,46.25714,43.89925077880859,46.17224Q44.007290778808596,46.08734,44.10421077880859,45.99452Q44.20114077880859,45.90171,44.28602077880859,45.80188Q44.37090077880859,45.70204,44.442930778808595,45.59615Q44.5149507788086,45.49026,44.5734207788086,45.37933Q44.6318907788086,45.26841,44.67624077880859,45.15351Q44.72059077880859,45.03861,44.7504007788086,44.92085Q44.78020077880859,44.80309,44.79518077880859,44.6836Q44.810160778808594,44.56411,44.810160778808594,44.44404Q44.810160778808594,44.32397,44.79518077880859,44.204480000000004Q44.78020077880859,44.08499,44.7504007788086,43.96723Q44.72059077880859,43.84947,44.67624077880859,43.73457Q44.6318907788086,43.61968,44.5734207788086,43.50875Q44.5149507788086,43.39782,44.442930778808595,43.29193Q44.37091077880859,43.18604,44.28602077880859,43.0862Q44.20114077880859,42.986371,44.10421077880859,42.893558Q44.007290778808596,42.800744,43.89925077880859,42.715843Q43.791220778808594,42.630942,43.67311077880859,42.554772Q43.555010778808594,42.478601,43.42797077880859,42.411895Q43.30093077880859,42.345189,43.16619077880859,42.288589Q43.031440778808594,42.23199,42.89029077880859,42.186041Q42.74913077880859,42.140093,42.602920778808596,42.10524Q42.456720778808595,42.0703857,42.306870778808594,42.0469615Q42.157020778808594,42.0235374,42.00497077880859,42.0117687Q41.852920778808596,42,41.70013077880859,42Q41.54735077880859,42,41.3953007788086,42.0117687Q41.243250778808594,42.0235374,41.09340077880859,42.0469615Q40.94355077880859,42.0703857,40.797340778808596,42.10524Q40.65113077880859,42.140093,40.5099807788086,42.186041Q40.36882077880859,42.23199,40.2340807788086,42.288589Q40.09933077880859,42.345189,39.972300778808595,42.411895Q39.845260778808594,42.478601,39.727160778808596,42.554772Q39.609050778808594,42.630942,39.50101577880859,42.715843Q39.392979778808595,42.800744,39.29605377880859,42.893558Q39.19912677880859,42.986371,39.11424377880859,43.0862Q39.029360778808595,43.18604,38.95733877880859,43.29193Q38.8853157788086,43.39782,38.826846778808594,43.50875Q38.7683787788086,43.61968,38.72402777880859,43.73457Q38.679675978808596,43.84947,38.64986897880859,43.96723Q38.62006197880859,44.08499,38.60508637880859,44.204480000000004Q38.590110778808594,44.32397,38.590110778808594,44.44404Q38.590110778808594,44.56411,38.60508637880859,44.6836Q38.62006197880859,44.80309,38.64986897880859,44.92085Q38.679675978808596,45.03861,38.72402777880859,45.15351Q38.7683787788086,45.26841,38.826846778808594,45.37933Q38.8853157788086,45.49026,38.95733877880859,45.59615Q39.029360778808595,45.70204,39.11424377880859,45.80188Q39.19912677880859,45.90171,39.29605377880859,45.99452Q39.392979778808595,46.08734,39.50101577880859,46.17224Q39.609050778808594,46.25714,39.727160778808596,46.33331Q39.845260778808594,46.40948,39.972300778808595,46.47619Q40.09933077880859,46.54289,40.2340807788086,46.59949Q40.36882077880859,46.65609,40.5099807788086,46.70204Q40.65113077880859,46.74799,40.797340778808596,46.78284Q40.94355077880859,46.8177,41.09340077880859,46.841120000000004Q41.243250778808594,46.86454,41.3953007788086,46.876310000000004Q41.54735077880859,46.88808,41.70013077880859,46.88808ZM43.59031077880859,43.10897Q44.310160778808594,43.67468,44.310160778808594,44.44404Q44.310160778808594,45.21341,43.59031077880859,45.77911Q42.81539077880859,46.38808,41.70013077880859,46.38808Q40.584880778808596,46.38808,39.809960778808595,45.77911Q39.090110778808594,45.21341,39.090110778808594,44.44404Q39.090110778808594,43.67468,39.809960778808595,43.10897Q40.584880778808596,42.5,41.70013077880859,42.5Q42.81539077880859,42.5,43.59031077880859,43.10897Z" fill-rule="evenodd" fill="#E6E8EE" fill-opacity="1"/></g><g transform="matrix(0.9521302580833435,0.3056926131248474,-0.3056926131248474,0.9521302580833435,13.466591878048803,-16.084543701839266)"><ellipse cx="59.528088331222534" cy="36.27178120613098" rx="1.437443494796753" ry="1.3157265186309814" fill="#CDD0DC" fill-opacity="0.15000000596046448"/><path d="M59.52808483642578,37.5875046875Q59.59870483642578,37.5875046875,59.66898483642578,37.5811746875Q59.73925483642578,37.5748346875,59.80851483642578,37.5622246875Q59.87777483642578,37.5496146875,59.94535483642578,37.5308546875Q60.01293483642578,37.5120846875,60.07817483642578,37.4873546875Q60.143414836425784,37.4626146875,60.20569483642578,37.4321446875Q60.26797483642578,37.4016746875,60.326684836425784,37.3657646875Q60.38540483642578,37.3298546875,60.43999483642578,37.2888546875Q60.49458483642578,37.2478446875,60.54451483642578,37.2021446875Q60.59444483642578,37.1564346875,60.63924483642578,37.1064646875Q60.684044836425784,37.0565046875,60.72327483642578,37.0027546875Q60.76251483642578,36.9490146875,60.79580483642578,36.8920146875Q60.82908483642578,36.8350046875,60.85611483642578,36.7752846875Q60.88313483642578,36.7155746875,60.90363483642578,36.6537146875Q60.92413483642578,36.5918646875,60.93791483642578,36.5284646875Q60.951684836425784,36.4650746875,60.95861483642578,36.4007446875Q60.96553483642578,36.3364146875,60.96553483642578,36.2717846875Q60.96553483642578,36.2071446875,60.95861483642578,36.1428146875Q60.951684836425784,36.0784946875,60.93791483642578,36.0150946875Q60.92413483642578,35.9516996875,60.90363483642578,35.8898456875Q60.88313483642578,35.8279916875,60.85611483642578,35.7682746875Q60.82908483642578,35.7085576875,60.79580483642578,35.6515516875Q60.76251483642578,35.5945466875,60.72327483642578,35.5408026875Q60.684044836425784,35.4870586875,60.63924483642578,35.4370926875Q60.59444483642578,35.3871276875,60.54451483642578,35.3414216875Q60.49458483642578,35.2957166875,60.43999483642578,35.2547106875Q60.38540483642578,35.2137056875,60.326684836425784,35.1777946875Q60.26797483642578,35.1418836875,60.20569483642578,35.1114136875Q60.143414836425784,35.0809436875,60.07817483642578,35.0562086875Q60.01293483642578,35.0314726875,59.94535483642578,35.0127093875Q59.87777483642578,34.9939461875,59.80851483642578,34.9813359875Q59.73925483642578,34.9687258875,59.66898483642578,34.9623902675Q59.59870483642578,34.9560546875,59.52808483642578,34.9560546875Q59.45747483642578,34.9560546875,59.387194836425785,34.9623902675Q59.31691483642578,34.9687258875,59.24765483642578,34.9813359875Q59.17839483642578,34.9939461875,59.110824836425785,35.0127093875Q59.04324383642578,35.0314726875,58.97800283642578,35.0562086875Q58.91276083642578,35.0809436875,58.85048183642578,35.1114136875Q58.78820383642578,35.1418836875,58.72948783642578,35.1777946875Q58.67077183642578,35.2137056875,58.61618383642578,35.2547106875Q58.56159583642578,35.2957166875,58.51166183642578,35.3414216875Q58.461728836425785,35.3871276875,58.41692983642578,35.4370926875Q58.37213083642578,35.4870586875,58.33289783642578,35.5408026875Q58.29366483642578,35.5945466875,58.26037583642578,35.6515516875Q58.22708783642578,35.7085576875,58.200063836425784,35.7682746875Q58.17303973642578,35.8279916875,58.15254063642578,35.8898456875Q58.13204163642578,35.9516996875,58.11826493642578,36.0150946875Q58.10448823642578,36.0784946875,58.09756651642578,36.1428146875Q58.09064483642578,36.2071446875,58.09064483642578,36.2717846875Q58.09064483642578,36.3364146875,58.09756651642578,36.4007446875Q58.10448823642578,36.4650746875,58.11826493642578,36.5284646875Q58.13204163642578,36.5918646875,58.15254063642578,36.6537146875Q58.17303973642578,36.7155746875,58.200063836425784,36.7752846875Q58.22708783642578,36.8350046875,58.26037583642578,36.8920146875Q58.29366483642578,36.9490146875,58.33289783642578,37.0027546875Q58.37213083642578,37.0565046875,58.41692983642578,37.1064646875Q58.461728836425785,37.1564346875,58.51166183642578,37.2021446875Q58.56159583642578,37.2478446875,58.61618383642578,37.2888546875Q58.67077183642578,37.3298546875,58.72948783642578,37.3657646875Q58.78820383642578,37.4016746875,58.85048183642578,37.4321446875Q58.91276083642578,37.4626146875,58.97800183642578,37.4873546875Q59.04324383642578,37.5120846875,59.110824836425785,37.5308546875Q59.17839483642578,37.5496146875,59.24765483642578,37.5622246875Q59.31691483642578,37.5748346875,59.387194836425785,37.5811746875Q59.45747483642578,37.5875046875,59.52808483642578,37.5875046875ZM60.206924836425785,35.7102456875Q60.46553483642578,35.9469576875,60.46553483642578,36.2717846875Q60.46553483642578,36.5966046875,60.206924836425785,36.8333146875Q59.92921483642578,37.0875046875,59.52808483642578,37.0875046875Q59.126964836425785,37.0875046875,58.84925583642578,36.8333146875Q58.59064483642578,36.5966046875,58.59064483642578,36.2717846875Q58.59064483642578,35.9469576875,58.84925583642578,35.7102456875Q59.126964836425785,35.4560546875,59.52808483642578,35.4560546875Q59.92921483642578,35.4560546875,60.206924836425785,35.7102456875Z" fill-rule="evenodd" fill="#E6E8EE" fill-opacity="1"/></g><g transform="matrix(0.994263768196106,-0.10695622116327286,0.10695622116327286,0.994263768196106,-3.0117960872530603,5.382327087586248)"><ellipse cx="49.86860799789429" cy="31.72642344236374" rx="1.1961150169372559" ry="0.956892192363739" fill="#CDD0DC" fill-opacity="0.15000000596046448"/><path d="M49.86861298095703,32.68331125Q49.92737298095703,32.68331125,49.98584298095703,32.67871125Q50.044322980957034,32.67410125,50.10196298095703,32.66493125Q50.15959298095703,32.65576125,50.21582298095703,32.64211125Q50.27205298095703,32.62846125,50.32634298095703,32.61048125Q50.38063298095703,32.59249125,50.43245298095703,32.57033125Q50.48427298095703,32.54817125,50.533132980957035,32.52205125Q50.58199298095703,32.49593125,50.62741298095703,32.46611125Q50.67284298095703,32.43629125,50.71439298095703,32.40305125Q50.75594298095703,32.36981125,50.79321298095703,32.33347125Q50.83049298095703,32.29713125,50.86314298095703,32.25804125Q50.89578298095703,32.21896125,50.92348298095703,32.17750125Q50.95118298095703,32.13604125,50.97367298095703,32.09261125Q50.99616298095703,32.04918125,51.01322298095703,32.00419125Q51.03027298095703,31.95921125,51.04174298095703,31.91310125Q51.05320298095703,31.86700125,51.058962980957034,31.82021125Q51.06472298095703,31.77343125,51.06472298095703,31.72642325Q51.06472298095703,31.67941425,51.058962980957034,31.63263125Q51.05320298095703,31.58584925,51.04174298095703,31.53974325Q51.03027298095703,31.49363725,51.01322298095703,31.44865225Q50.99616298095703,31.40366725,50.97367298095703,31.36023625Q50.95118298095703,31.31680625,50.92348298095703,31.27534725Q50.89578298095703,31.23388925,50.86314298095703,31.19480225Q50.83049298095703,31.15571625,50.79321298095703,31.11937725Q50.75594298095703,31.08303925,50.71439298095703,31.04979825Q50.67284298095703,31.01655825,50.62741298095703,30.98673525Q50.58199298095703,30.95691325,50.533132980957035,30.93079625Q50.48427298095703,30.90468025,50.43245298095703,30.88252025Q50.38063298095703,30.86035995,50.32634298095703,30.84237035Q50.27205298095703,30.82438075,50.21582298095703,30.81073475Q50.15959298095703,30.79708865,50.10196298095703,30.78791765Q50.044322980957034,30.77874664,49.98584298095703,30.77413895Q49.92737298095703,30.76953125,49.86861298095703,30.76953125Q49.80984298095703,30.76953125,49.75137298095703,30.77413895Q49.69289298095703,30.77874664,49.63525798095703,30.78791765Q49.57762498095703,30.79708865,49.52139398095703,30.81073465Q49.46516298095703,30.82438075,49.41087498095703,30.84237035Q49.35658598095703,30.86035995,49.30476298095703,30.88252025Q49.25293998095703,30.90468025,49.20408198095703,30.93079625Q49.15522398095703,30.95691325,49.10980098095703,30.98673525Q49.06437798095703,31.01655825,49.02282698095703,31.04979825Q48.98127598095703,31.08303925,48.94399898095703,31.11937725Q48.90672098095703,31.15571625,48.87407498095703,31.19480225Q48.84142898095703,31.23388925,48.81372898095703,31.27534725Q48.786028980957035,31.31680625,48.763541780957034,31.36023625Q48.74105478095703,31.40366725,48.72399728095703,31.44865225Q48.70693978095703,31.49363725,48.695475980957035,31.53974325Q48.68401218095703,31.58584925,48.67825260095703,31.63263125Q48.67249298095703,31.67941425,48.67249298095703,31.72642325Q48.67249298095703,31.77343125,48.67825260095703,31.82021125Q48.68401218095703,31.86700125,48.695475980957035,31.91310125Q48.70693978095703,31.95921125,48.72399728095703,32.00419125Q48.74105478095703,32.04918125,48.763541780957034,32.09261125Q48.786028980957035,32.13604125,48.81372898095703,32.17750125Q48.84142898095703,32.21896125,48.87407498095703,32.25804125Q48.90672098095703,32.29713125,48.94399898095703,32.33347125Q48.98127598095703,32.36981125,49.02282698095703,32.40305125Q49.06437798095703,32.43629125,49.10980098095703,32.46611125Q49.15522398095703,32.49593125,49.20408198095703,32.52205125Q49.25293998095703,32.54817125,49.30476298095703,32.57033125Q49.35658598095703,32.59249125,49.41087498095703,32.61048125Q49.46516298095703,32.62846125,49.52139398095703,32.64211125Q49.57762498095703,32.65576125,49.63525798095703,32.66493125Q49.69289298095703,32.67410125,49.75137298095703,32.67871125Q49.80984298095703,32.68331125,49.86861298095703,32.68331125ZM50.402042980957035,31.44023325Q50.56472298095703,31.57037825,50.56472298095703,31.72642325Q50.56472298095703,31.882471250000002,50.402042980957035,32.01261125Q50.188662980957034,32.18331125,49.86861298095703,32.18331125Q49.54855098095703,32.18331125,49.33517398095703,32.01261125Q49.17249298095703,31.882471250000002,49.17249298095703,31.72642325Q49.17249298095703,31.57037825,49.33517398095703,31.44023325Q49.54855098095703,31.26953125,49.86861298095703,31.26953125Q50.188662980957034,31.26953125,50.402042980957035,31.44023325Z" fill-rule="evenodd" fill="#E6E8EE" fill-opacity="1"/></g><g transform="matrix(0.8883116245269775,0.45924112200737,-0.45924112200737,0.8883116245269775,23.84654589769525,-10.052430519591553)"><ellipse cx="33.06855669617653" cy="44.71766895055771" rx="0.4784459173679352" ry="0.7176689505577087" fill="#CDD0DC" fill-opacity="0.15000000596046448"/><path d="M33.06855677880859,45.43534Q33.11567977880859,45.43534,33.1618967788086,45.42155Q33.208113778808595,45.40776,33.25164977880859,45.38071Q33.295185778808595,45.35366,33.334366778808594,45.31439Q33.37354777880859,45.27512,33.406868778808594,45.22514Q33.440189778808595,45.17516,33.46636977880859,45.11638Q33.492549778808595,45.05761,33.51058277880859,44.992309Q33.52861577880859,44.927005,33.537809778808594,44.857679Q33.5470027788086,44.788353,33.5470027788086,44.717669Q33.5470027788086,44.646985,33.537809778808594,44.577659Q33.52861577880859,44.508333,33.51058277880859,44.443029Q33.492549778808595,44.377725,33.46636977880859,44.318953Q33.440189778808595,44.260182,33.406868778808594,44.2102Q33.37354777880859,44.160219,33.334366778808594,44.120949Q33.295185778808595,44.081679,33.25164977880859,44.0546293Q33.208113778808595,44.0275796,33.1618967788086,44.0137898Q33.11567977880859,44,33.06855677880859,44Q33.02143377880859,44,32.975216778808594,44.0137898Q32.92899877880859,44.0275796,32.88546377880859,44.0546293Q32.841927778808596,44.081679,32.8027467788086,44.120949Q32.76356477880859,44.160219,32.7302447788086,44.2102Q32.696923778808596,44.260182,32.670743478808596,44.318953Q32.64456337880859,44.377725,32.626530278808595,44.443029Q32.60849717880859,44.508333,32.59930397880859,44.577659Q32.590110778808594,44.646985,32.590110778808594,44.717669Q32.590110778808594,44.788353,32.59930397880859,44.857679Q32.60849717880859,44.927005,32.626530278808595,44.992309Q32.64456337880859,45.05761,32.670743478808596,45.11638Q32.696923778808596,45.17516,32.7302447788086,45.22514Q32.76356477880859,45.27512,32.8027467788086,45.31439Q32.841927778808596,45.35366,32.88546377880859,45.38071Q32.92899877880859,45.40776,32.975216778808594,45.42155Q33.02143377880859,45.43534,33.06855677880859,45.43534Z" fill-rule="evenodd" fill="#E6E8EE" fill-opacity="1"/></g><g transform="matrix(0.9804505705833435,0.1967654675245285,-0.1967654675245285,0.9804505705833435,10.46686285661417,-6.136405236862629)"><ellipse cx="37.65132188796997" cy="51.639840602874756" rx="1.5363316535949707" ry="2.033395290374756" fill="#CDD0DC" fill-opacity="0.15000000596046448"/><path d="M37.651320234375,53.6732353125Q37.726800234375,53.6732353125,37.801910234375,53.6634453125Q37.877020234375,53.6536553125,37.951040234375,53.6341653125Q38.025070234375,53.6146753125,38.097300234375,53.5856753125Q38.169520234375,53.5566853125,38.239250234375,53.5184553125Q38.308980234375,53.4802253125,38.375540234375,53.4331353125Q38.442110234375,53.3860453125,38.504860234375,53.3305453125Q38.567620234375,53.2750453125,38.625960234375,53.2116753125Q38.684300234375,53.1483053125,38.737670234375,53.0776653125Q38.791040234375004,53.0070353125,38.838920234375,52.9298153125Q38.886800234375,52.8525953125,38.928730234375,52.7695353125Q38.970670234375,52.6864753125,39.006240234375,52.598375312499996Q39.041820234375,52.5102753125,39.070710234375,52.4179853125Q39.099590234375,52.3256953125,39.121500234375,52.2301053125Q39.143410234375,52.1345153125,39.158130234375,52.0365353125Q39.172860234375,51.9385653125,39.180260234375,51.8391453125Q39.187650234375,51.7397353125,39.187650234375,51.6398453125Q39.187650234375,51.5399453125,39.180260234375,51.4405353125Q39.172860234375,51.3411153125,39.158130234375,51.2431453125Q39.143410234375,51.1451653125,39.121500234375,51.0495753125Q39.099590234375,50.9539853125,39.070710234375,50.8616953125Q39.041820234375,50.7694053125,39.006250234375,50.6813053125Q38.970670234375,50.5932053125,38.928730234375,50.5101463125Q38.886800234375,50.4270873125,38.838920234375,50.3498683125Q38.791040234375004,50.2726493125,38.737670234375,50.2020133125Q38.684300234375,50.1313773125,38.625960234375,50.0680043125Q38.567620234375,50.0046323125,38.504860234375,49.9491343125Q38.442110234375,49.8936363125,38.375540234375,49.8465463125Q38.308980234375,49.7994563125,38.239250234375,49.7612283125Q38.169520234375,49.7230003125,38.097290234375,49.6940026125Q38.025070234375,49.6650048125,37.951040234375,49.6455164125Q37.877020234375,49.6260280125,37.801910234375,49.6162366625Q37.726800234375,49.6064453125,37.651320234375,49.6064453125Q37.575850234375,49.6064453125,37.500730234375,49.6162366625Q37.425620234375,49.6260280125,37.351600234375,49.6455164125Q37.277570234375,49.6650048125,37.205350234375,49.6940026125Q37.133120234375,49.7230003125,37.063393234375,49.7612283125Q36.993663234375,49.7994563125,36.927100234375,49.8465463125Q36.860537234375,49.8936363125,36.797781234375,49.9491343125Q36.735026234375,50.0046323125,36.676683234375,50.0680053125Q36.618340234375,50.1313773125,36.564971234375,50.2020133125Q36.511602234375,50.2726493125,36.463721234375,50.3498683125Q36.415840234375,50.4270873125,36.373909234375,50.5101463125Q36.331977234375,50.5932053125,36.296398234375,50.6813053125Q36.260819234375,50.7694053125,36.231936234375,50.8616953125Q36.203053434375,50.9539853125,36.181144134375,51.0495753125Q36.159234834375,51.1451653125,36.144510434375,51.2431453125Q36.129785934375,51.3411153125,36.122388094375,51.4405353125Q36.114990234375,51.5399453125,36.114990234375,51.6398453125Q36.114990234375,51.7397353125,36.122388094375,51.8391453125Q36.129785934375,51.9385653125,36.144510434375,52.0365353125Q36.159234834375,52.1345153125,36.181144134375,52.2301053125Q36.203053434375,52.3256953125,36.231936234375,52.4179853125Q36.260819234375,52.5102753125,36.296398234375,52.598375312499996Q36.331977234375,52.6864753125,36.373909234375,52.7695353125Q36.415840234375,52.8525953125,36.463721234375,52.9298153125Q36.511602234375,53.0070353125,36.564971234375,53.0776653125Q36.618340234375,53.1483053125,36.676683234375,53.2116753125Q36.735026234375,53.2750453125,36.797781234375,53.3305453125Q36.860537234375,53.3860453125,36.927100234375,53.4331353125Q36.993663234375,53.4802253125,37.063393234375,53.5184553125Q37.133120234375,53.5566853125,37.205350234375,53.5856753125Q37.277570234375,53.6146753125,37.351600234375,53.6341653125Q37.425620234375,53.6536553125,37.500730234375,53.6634453125Q37.575850234375,53.6732353125,37.651320234375,53.6732353125ZM38.338740234375,50.5034283125Q38.687650234375,50.9652353125,38.687650234375,51.6398453125Q38.687650234375,52.3144453125,38.338740234375,52.7762553125Q38.038800234375,53.1732353125,37.651320234375,53.1732353125Q37.263850234375,53.1732353125,36.963906234375,52.7762553125Q36.614990234375,52.3144453125,36.614990234375,51.6398453125Q36.614990234375,50.9652353125,36.963906234375,50.5034283125Q37.263850234375,50.1064453125,37.651320234375,50.1064453125Q38.038800234375,50.1064453125,38.338740234375,50.5034283125Z" fill-rule="evenodd" fill="#E6E8EE" fill-opacity="1"/></g></g><g mask="url(#master_svg7_2233_11266/1678_14750)"><g transform="matrix(0.9762737154960632,-0.21654006838798523,0.21654006838798523,0.9762737154960632,-10.735101789236069,4.025061398744583)"><path d="M87.5656,50.192786Q83.9672,50.139164,79.3327,51.93525L79.917,53.4431Q84.258,51.760798,87.5415,51.809728Q91.03,51.861713,91.3342,54.11937Q91.6874,56.74134,86.6741,59.1699Q81.3442,61.7518,66.7401,65.5601Q53.4961,69.0137,36.4144,69.8956Q21.41126,70.6702,15.78727,69.2265Q13.954239,68.7559,13.81873,67.9426Q13.689867,67.1692,14.91793,66.0897Q18.39096,63.0366,24.1765,63.2271L24.2297,61.6108Q17.80419,61.3993,13.850249,64.8751Q11.94699,66.5482,12.223597999999999,68.2084Q12.532175,70.0604,15.38519,70.7928Q21.24823,72.2979,36.4978,71.5106Q53.7444,70.6202,67.1482,67.1249Q81.9062,63.2764,87.3791,60.62525Q93.4464,57.68611,92.9368,53.90347Q92.4467,50.265524,87.5656,50.192786Z" fill-rule="evenodd" fill="#E6E8EE" fill-opacity="1"/></g></g></g></g></svg>