<svg xmlns="http://www.w3.org/2000/svg" xmlns:xlink="http://www.w3.org/1999/xlink" fill="none" version="1.1" width="108" height="108" viewBox="0 0 108 108"><defs><clipPath id="master_svg0_2233_11237"><rect x="0" y="0" width="108" height="108" rx="0"/></clipPath><filter id="master_svg1_2233_11238/1678_07685" filterUnits="objectBoundingBox" color-interpolation-filters="sRGB" x="0" y="0" width="1" height="1"><feFlood flood-opacity="0" result="BackgroundImageFix"/><feBlend mode="normal" in="SourceGraphic" in2="BackgroundImageFix" result="shape"/><feGaussianBlur in="BackgroundImageFix" stdDeviation="1.6704914569854736"/><feComposite in2="SourceAlpha" operator="in" result="effect1_foregroundBlur"/><feBlend mode="normal" in="SourceGraphic" in2="effect1_foregroundBlur" result="shape"/></filter><radialGradient cx="0" cy="0" r="1" gradientUnits="userSpaceOnUse" id="master_svg2_1678_07663" gradientTransform="translate(66.8604325056076 17.11666464805603) rotate(67.12604831852437) scale(64.61539255083372 100.38462771290239)"><stop offset="31.43037259578705%" stop-color="#FFFFFF" stop-opacity="1"/><stop offset="85.4337751865387%" stop-color="#FFFFFF" stop-opacity="0"/></radialGradient><mask id="master_svg3_2233_11238/1678_07683" style="mask-type:alpha" maskUnits="objectBoundingBox"><g><rect x="17.999959468841553" y="34.00045394897461" width="87" height="56" rx="0" fill="url(#master_svg2_1678_07663)" fill-opacity="1"/></g></mask><linearGradient x1="0.8683232665061951" y1="0.8282685875892639" x2="-0.017717793839493668" y2="0.4100012729111754" id="master_svg4_1678_07068"><stop offset="25.987210869789124%" stop-color="#FFFFFF" stop-opacity="1"/><stop offset="100%" stop-color="#FFFFFF" stop-opacity="0"/></linearGradient><mask id="master_svg5_2233_11238/1678_07679" style="mask-type:alpha" maskUnits="objectBoundingBox"><g><rect x="11" y="23" width="46" height="34" rx="0" fill="url(#master_svg4_1678_07068)" fill-opacity="1"/></g></mask></defs><g clip-path="url(#master_svg0_2233_11237)"><g><g><g><g><g style="opacity:0.5;" filter="url(#master_svg1_2233_11238/1678_07685)"><path d="M21.549542903900146,73.26487738647461C21.549542903900146,74.8191773864746,22.359678903900146,76.26107738647461,23.687182903900148,77.0695773864746L49.16354290390015,92.58447738647462C50.59004290390015,93.45327738647461,52.38274290390015,93.45097738647462,53.80714290390014,92.57867738647461L98.43694290390015,65.2450773864746C99.75904290390015,64.43537738647461,100.56504290390015,62.99657738647461,100.56504290390015,61.446277386474605L100.56504290390015,56.87067738647461C100.56504290390015,55.454377386474604,99.80424290390015,54.14727738647461,98.57284290390015,53.44767738647461L72.72304290390014,38.76302738647461C71.34564290390014,37.98057738647461,69.65634290390014,37.98844538647461,68.28634290390015,38.78368738647461L23.509942903900146,64.77477738647461C22.296406903900145,65.47917738647462,21.549542903900146,66.77627738647462,21.549542903900146,68.17947738647462L21.549542903900146,73.26487738647461Z" fill="#FFFFFF" fill-opacity="1"/><path d="M101.03004290390015,61.446277386474605L101.03004290390015,56.87067738647461Q101.03004290390015,54.30877738647461,98.80254290390015,53.04337738647461L72.95274290390014,38.35870838647461Q70.49624290390014,36.96326838647461,68.05294290390015,38.381528386474606L23.276502903900145,64.3725773864746Q21.084542903900147,65.64497738647461,21.084542903900147,68.17947738647462L21.084542903900147,73.26487738647461Q21.084542903900147,76.02897738647461,23.445322903900145,77.4666773864746L48.92164290390015,92.98157738647461Q51.48774290390014,94.54437738647461,54.049942903900146,92.97517738647461L98.67984290390015,65.64157738647461Q101.03004290390015,64.2021773864746,101.03004290390015,61.446277386474605ZM98.34314290390014,53.85197738647461Q100.10004290390015,54.85007738647461,100.10004290390015,56.87067738647461L100.10004290390015,61.446277386474605Q100.10004290390015,63.68117738647461,98.19414290390014,64.84847738647461L53.564242903900144,92.18207738647462Q51.48644290390015,93.4546773864746,49.40534290390015,92.18727738647462L23.929042903900147,76.67237738647461Q22.014542903900146,75.50647738647461,22.014542903900146,73.26487738647461L22.014542903900146,68.17947738647462Q22.014542903900146,66.1804773864746,23.743382903900148,65.17687738647462L68.51984290390016,39.185847386474606Q70.50124290390015,38.03568938647461,72.49334290390016,39.16733738647461L98.34314290390014,53.85197738647461Z" fill-rule="evenodd" fill="#CDD0DC" fill-opacity="1"/></g><g><path d="M23.423031968841553,64.55841019897461C20.55313196884155,66.26091019897461,20.505011968841554,70.3981101989746,23.334521968841553,72.16691019897462L48.852471968841556,88.1190101989746C50.28837196884155,89.0166101989746,52.109071968841555,89.0225101989746,53.55077196884155,88.13411019897461L97.85027196884155,60.836010198974606C100.65867196884155,59.10541019897461,100.67737196884156,55.02911019897461,97.88507196884156,53.27281019897461L73.28007196884155,37.79712019897461C71.86577196884156,36.90755619897461,70.07257196884154,36.884230198974606,68.63557196884156,37.73670019897461L23.423031968841553,64.55841019897461Z" fill="#FFFFFF" fill-opacity="1"/><path d="M48.60597196884155,88.51331019897461Q51.19517196884155,90.13181019897462,53.794671968841556,88.53001019897461L98.09427196884155,61.23191019897461Q100.42037196884155,59.79851019897461,100.43297196884156,57.06621019897461Q100.44547196884156,54.33391019897461,98.13257196884155,52.879210198974604L73.52767196884156,37.40350019897461Q70.98337196884155,35.80323719897461,68.39827196884156,37.33678019897461L23.185781968841553,64.15841019897461Q20.808681968841555,65.56861019897461,20.776531968841553,68.33241019897461Q20.74438196884155,71.0961101989746,23.08804196884155,72.5612101989746L48.60597196884155,88.51331019897461ZM97.60637196884156,60.44011019897461L53.30677196884155,87.7382101989746Q51.19867196884155,89.03731019897461,49.09897196884155,87.7247101989746L23.58101196884155,71.7726101989746Q21.680391968841555,70.58451019897461,21.70647196884155,68.34321019897462Q21.732541968841552,66.10191019897461,23.660281968841552,64.9583101989746L68.87277196884156,38.13663019897461Q70.96917196884155,36.89298019897461,73.03247196884155,38.19074019897461L97.63747196884155,53.66641019897461Q99.51307196884156,54.846110198974614,99.50297196884155,57.06191019897461Q99.49277196884155,59.27771019897461,97.60637196884156,60.44011019897461Z" fill-rule="evenodd" fill="#CDD0DC" fill-opacity="1"/></g><g mask="url(#master_svg3_2233_11238/1678_07683)"><g><path d="M48.605871968841555,88.5132101989746Q51.19517196884155,90.13191019897461,53.79477196884155,88.52981019897462L98.14207196884155,61.20021019897461Q100.47037196884155,59.76531019897461,100.48067196884155,57.03041019897461Q100.49097196884155,54.295610198974614,98.17347196884155,52.84321019897461L73.52507196884156,37.39665019897461Q70.98287196884155,35.80350619897461,68.40257196884156,37.33422119897461L23.185781968841553,64.15841019897461Q20.80867196884155,65.56861019897461,20.776531968841553,68.33241019897461Q20.74438196884155,71.0961101989746,23.08804196884155,72.5612101989746L48.605871968841555,88.5132101989746ZM97.65417196884155,60.40841019897461L53.306871968841556,87.73811019897461Q51.19867196884155,89.03731019897461,49.09887196884155,87.7246101989746L23.58101196884155,71.7726101989746Q21.680391968841555,70.58451019897461,21.706461968841552,68.34321019897462Q21.732541968841552,66.10191019897461,23.660281968841552,64.9583101989746L68.87707196884156,38.13407019897461Q70.96957196884155,36.89271419897461,73.03127196884155,38.18470019897461L97.67967196884155,53.63131019897461Q99.55907196884155,54.80911019897461,99.55067196884156,57.026910198974605Q99.54237196884155,59.244810198974605,97.65417196884155,60.40841019897461Z" fill-rule="evenodd" fill="#615CED" fill-opacity="1"/></g></g></g></g><g transform="matrix(0.7060683369636536,0.7081436514854431,-0.7053070664405823,0.7089018821716309,33.12565717322286,-49.95174234348815)"><path d="M76.705078125,22.70788L79.715458125,22.91006L79.892318125,16.52179C79.915398125,15.688228,79.245958125,15,78.412078125,15C77.615077125,15,76.961042125,15.630808,76.932235125,16.42729L76.705078125,22.70788Z" fill="#FFFFFF" fill-opacity="1"/><path d="M76.487062125,16.41119L76.259905125,22.69178L76.244294125,23.1234L80.14792812499999,23.38557L80.337608125,16.53412Q80.360128125,15.720879,79.792878125,15.137708Q79.225628125,14.554536,78.412078125,14.554536Q77.634509125,14.554536,77.074838125,15.0943308Q76.515166125,15.634126,76.487062125,16.41119ZM77.165862125,22.292360000000002L79.282988125,22.43455L79.447028125,16.50946Q79.459128125,16.07236,79.154238125,15.758911Q78.849348125,15.445464,78.412078125,15.445464Q77.994148125,15.445464,77.693329125,15.735597Q77.392514125,16.02573,77.377408125,16.44339L77.165862125,22.292360000000002Z" fill-rule="evenodd" fill="#CDD0DC" fill-opacity="1"/></g><g transform="matrix(0.9911899566650391,-0.13263554871082306,0.13159462809562683,0.9912788271903992,-3.9076604480770243,8.149620947428389)"><rect x="59.23046875" y="33.66006278991699" width="2.9448838233947754" height="16.751548767089844" rx="1.4724419116973877" fill="#FFFFFF" fill-opacity="1"/><rect x="59.23046875" y="33.66006278991699" width="2.9448838233947754" height="16.751548767089844" rx="1.4724419116973877" fill-opacity="0" stroke-opacity="1" stroke="#CDD0DC" fill="none" stroke-width="0.8909286856651306"/></g><g transform="matrix(0.8426843285560608,-0.5384078621864319,0.5353437066078186,0.8446342945098877,-36.283229498676974,39.3008185210515)"><path d="M49.259742736816406,82.74309408007812L62.0725427368164,82.74309408007812L62.0725427368164,82.74100708007812Q62.12084273681641,82.74100708007812,62.16814273681641,82.73159208007813Q62.21544273681641,82.72217708007813,62.2600427368164,82.70370808007813Q62.304642736816405,82.68523908007812,62.34474273681641,82.65842708007813Q62.384942736816406,82.63161508007812,62.41904273681641,82.59748908007812Q62.4531427368164,82.56336408007813,62.479942736816405,82.52323608007812Q62.506742736816406,82.48310908007812,62.52524273681641,82.43852208007813Q62.543742736816405,82.39393508007812,62.553142736816405,82.34660128007812Q62.562542736816404,82.29926788007812,62.562542736816404,82.25100708007812Q62.562542736816404,82.20274628007813,62.553142736816405,82.15541288007813Q62.543742736816405,82.10807908007813,62.52524273681641,82.06349208007812Q62.506742736816406,82.01890508007813,62.479942736816405,81.97877808007813Q62.4531427368164,81.93865008007812,62.41904273681641,81.90452508007813Q62.384942736816406,81.87039908007813,62.34474273681641,81.84358708007812Q62.304642736816405,81.81677508007813,62.2600427368164,81.79830608007812Q62.21544273681641,81.77983708007812,62.16814273681641,81.77042208007812Q62.12084273681641,81.76100708007813,62.0725427368164,81.76100708007813L62.0725427368164,81.75892008007813L49.259742736816406,81.75892008007813L49.259742736816406,81.76100708007813Q49.211481936816405,81.76100708007813,49.164148536816406,81.77042208007812Q49.11681473681641,81.77983708007812,49.07222773681641,81.79830608007812Q49.02764073681641,81.81677508007813,48.9875137368164,81.84358708007812Q48.94738573681641,81.87039908007813,48.913260736816405,81.90452508007813Q48.879134736816404,81.93865008007812,48.852322736816404,81.97877808007813Q48.825510736816405,82.01890508007813,48.80704173681641,82.06349208007812Q48.788572736816405,82.10807908007813,48.77915773681641,82.15541288007813Q48.769742736816404,82.20274628007813,48.769742736816404,82.25100708007812Q48.769742736816404,82.29926788007812,48.77915773681641,82.34660128007812Q48.788572736816405,82.39393508007812,48.80704173681641,82.43852208007813Q48.825510736816405,82.48310908007812,48.852322736816404,82.52323608007812Q48.879134736816404,82.56336408007813,48.913260736816405,82.59748908007812Q48.94738573681641,82.63161508007812,48.9875137368164,82.65842708007813Q49.02764073681641,82.68523908007812,49.07222773681641,82.70370808007813Q49.11681473681641,82.72217708007813,49.164148536816406,82.73159208007813Q49.211481936816405,82.74100708007812,49.259742736816406,82.74100708007812L49.259742736816406,82.74309408007812Z" fill-rule="evenodd" fill="#CDD0DC" fill-opacity="1"/></g><g transform="matrix(0.8426843285560608,-0.5384078621864319,0.5353437066078186,0.8446342945098877,-35.69154985860223,37.40886701492127)"><path d="M46.314453125,80.7723604375L59.127253124999996,80.7723604375L59.127253124999996,80.7702734375Q59.175553125,80.7702734375,59.222853125,80.7608584375Q59.270153125,80.7514434375,59.314753124999996,80.7329744375Q59.359353125,80.7145054375,59.399453125,80.6876934375Q59.439653125,80.6608814375,59.473753125,80.6267554375Q59.507853125,80.5926304375,59.534653125,80.5525024375Q59.561453125,80.5123754375,59.579953125,80.4677884375Q59.598453125,80.4232014375,59.607853125,80.3758676375Q59.617253125,80.3285342375,59.617253125,80.2802734375Q59.617253125,80.2320126375,59.607853125,80.1846792375Q59.598453125,80.1373454375,59.579953125,80.0927584375Q59.561453125,80.0481714375,59.534653125,80.0080444375Q59.507853125,79.9679164375,59.473753125,79.9337914375Q59.439653125,79.8996654375,59.399453125,79.8728534375Q59.359353125,79.8460414375,59.314753124999996,79.8275724375Q59.270153125,79.8091034375,59.222853125,79.7996884375Q59.175553125,79.7902734375,59.127253124999996,79.7902734375L59.127253124999996,79.7881864375L46.314453125,79.7881864375L46.314453125,79.7902734375Q46.266192325,79.7902734375,46.218858925,79.7996884375Q46.171525125,79.8091034375,46.126938125,79.8275724375Q46.082351125,79.8460414375,46.042224125,79.8728534375Q46.002096125,79.8996654375,45.967971125,79.9337914375Q45.933845125,79.9679164375,45.907033125,80.0080444375Q45.880221125,80.0481714375,45.861752125,80.0927584375Q45.843283125,80.1373454375,45.833868125,80.1846792375Q45.824453125,80.2320126375,45.824453125,80.2802734375Q45.824453125,80.3285342375,45.833868125,80.3758676375Q45.843283125,80.4232014375,45.861752125,80.4677884375Q45.880221125,80.5123754375,45.907033125,80.5525024375Q45.933845125,80.5926304375,45.967971125,80.6267554375Q46.002096125,80.6608814375,46.042224125,80.6876934375Q46.082351125,80.7145054375,46.126938125,80.7329744375Q46.171525125,80.7514434375,46.218858925,80.7608584375Q46.266192325,80.7702734375,46.314453125,80.7702734375L46.314453125,80.7723604375Z" fill-rule="evenodd" fill="#CDD0DC" fill-opacity="1"/></g><g><path d="M67.1912841796875,37.33361096527099L67.1912841796875,44.730790965271C67.1912841796875,45.54399096527099,67.8504721796875,46.203090965270995,68.6636241796875,46.203090965270995C69.4767741796875,46.203090965270995,70.1359641796875,45.54399096527099,70.1359641796875,44.730790965271L70.1359641796875,27.478590965270996L67.1912841796875,27.478590965270996L67.1912841796875,37.33361096527099Z" fill="#FFFFFF" fill-opacity="1"/><path d="M66.7458201796875,27.033126965270995L66.7458201796875,44.730790965271Q66.7458201796875,45.525190965270994,67.3075311796875,46.086890965270996Q67.8692441796875,46.648590965271,68.6636241796875,46.648590965271Q69.4580041796875,46.648590965271,70.0197141796875,46.086890965270996Q70.5814241796875,45.525190965270994,70.5814241796875,44.730790965271L70.5814241796875,27.033126965270995L66.7458201796875,27.033126965270995ZM67.6367481796875,44.730790965271L67.6367481796875,27.924054965270997L69.6904941796875,27.924054965270997L69.6904941796875,44.730790965271Q69.6904941796875,45.156190965270994,69.3897341796875,45.456890965271Q69.0889641796875,45.757690965270996,68.6636241796875,45.757690965270996Q68.2382741796875,45.757690965270996,67.9375131796875,45.456890965271Q67.6367481796875,45.156190965270994,67.6367481796875,44.730790965271Z" fill-rule="evenodd" fill="#CDD0DC" fill-opacity="1"/></g><g mask="url(#master_svg5_2233_11238/1678_07679)"><g transform="matrix(0.8663890361785889,0.49936962127685547,-0.4963668882846832,0.8681128025054932,14.198744552530115,-4.340224161511287)"><path d="M58.97696875,25.3276209375L15.16435847,24.9874469375L15.17157903,24.0574749375L58.98426875,24.3976489375L58.97696875,25.3276209375Z" fill-rule="evenodd" fill="#615CED" fill-opacity="1"/></g></g></g></g></g></svg>