<svg xmlns="http://www.w3.org/2000/svg" xmlns:xlink="http://www.w3.org/1999/xlink" fill="none" version="1.1" width="108" height="108" viewBox="0 0 108 108"><defs><clipPath id="master_svg0_2233_11243"><rect x="0" y="0" width="108" height="108" rx="0"/></clipPath><filter id="master_svg1_2233_11244/1678_09493" filterUnits="objectBoundingBox" color-interpolation-filters="sRGB" x="0" y="0" width="1" height="1"><feFlood flood-opacity="0" result="BackgroundImageFix"/><feBlend mode="normal" in="SourceGraphic" in2="BackgroundImageFix" result="shape"/><feGaussianBlur in="BackgroundImageFix" stdDeviation="1.0971252918243408"/><feComposite in2="SourceAlpha" operator="in" result="effect1_foregroundBlur"/><feBlend mode="normal" in="SourceGraphic" in2="effect1_foregroundBlur" result="shape"/></filter><filter id="master_svg2_2233_11244/1678_09480" filterUnits="objectBoundingBox" color-interpolation-filters="sRGB" x="0" y="0" width="1" height="1"><feFlood flood-opacity="0" result="BackgroundImageFix"/><feBlend mode="normal" in="SourceGraphic" in2="BackgroundImageFix" result="shape"/><feGaussianBlur in="BackgroundImageFix" stdDeviation="1.0971252918243408"/><feComposite in2="SourceAlpha" operator="in" result="effect1_foregroundBlur"/><feBlend mode="normal" in="SourceGraphic" in2="effect1_foregroundBlur" result="shape"/></filter><filter id="master_svg3_2233_11244/1678_09489" filterUnits="objectBoundingBox" color-interpolation-filters="sRGB" x="0" y="0" width="1" height="1"><feFlood flood-opacity="0" result="BackgroundImageFix"/><feBlend mode="normal" in="SourceGraphic" in2="BackgroundImageFix" result="shape"/><feGaussianBlur in="BackgroundImageFix" stdDeviation="1.0971252918243408"/><feComposite in2="SourceAlpha" operator="in" result="effect1_foregroundBlur"/><feBlend mode="normal" in="SourceGraphic" in2="effect1_foregroundBlur" result="shape"/></filter><filter id="master_svg4_2233_11244/1678_09487" filterUnits="objectBoundingBox" color-interpolation-filters="sRGB" x="0" y="0" width="1" height="1"><feFlood flood-opacity="0" result="BackgroundImageFix"/><feBlend mode="normal" in="SourceGraphic" in2="BackgroundImageFix" result="shape"/><feGaussianBlur in="BackgroundImageFix" stdDeviation="1.0971252918243408"/><feComposite in2="SourceAlpha" operator="in" result="effect1_foregroundBlur"/><feBlend mode="normal" in="SourceGraphic" in2="effect1_foregroundBlur" result="shape"/></filter><radialGradient cx="0" cy="0" r="1" gradientUnits="userSpaceOnUse" id="master_svg5_1678_09463" gradientTransform="translate(83.16357469558716 8.612304866313934) rotate(121.89993239398846) scale(65.07408398652754 100.70989188391167)"><stop offset="27.221348881721497%" stop-color="#FFFFFF" stop-opacity="1"/><stop offset="76.51076912879944%" stop-color="#FFFFFF" stop-opacity="0"/></radialGradient><mask id="master_svg6_2233_11244/1678_09485" style="mask-type:alpha" maskUnits="objectBoundingBox"><g transform="matrix(0.937401533126831,0.3482504189014435,-0.3482504189014435,0.937401533126831,7.943201119895093,-4.189953590321238)"><rect x="15.62646484375" y="20" width="65" height="42" rx="0" fill="url(#master_svg5_1678_09463)" fill-opacity="1"/></g></mask></defs><g clip-path="url(#master_svg0_2233_11243)"><g><g transform="matrix(0.9954127669334412,-0.09567377716302872,0.09567377716302872,0.9954127669334412,-4.983552761375904,2.060925118625164)"><g style="opacity:0.5;" filter="url(#master_svg1_2233_11244/1678_09493)"><path d="M21.37363571875,75.87933749999999C21.13900371875,77.0713375,21.66542571875,78.28433749999999,22.69632671875,78.9270375L48.544986718749996,95.0432375C49.48538671875,95.6296375,50.676386718749995,95.6342375,51.62138671875,95.0552375L81.09438671875,76.9969375C81.96238671875,76.4651375,82.49158671875,75.52023750000001,82.49158671875,74.5022375L82.49158671875,71.33913749999999C82.49158671875,70.4176375,82.00118671875,69.5658375,81.20428671875,69.1032375L55.54988671875,54.2084865C54.62348671875,53.6706495,53.47728671875,53.6820635,52.56178671875,54.2382405L22.94999671875,72.2284375C22.32933671875,72.6055375,21.89588171875,73.2262375,21.75562471875,73.9387375L21.37363571875,75.87933749999999Z" fill="#FFFFFF" fill-opacity="1"/><path d="M82.85728671875,74.5022375L82.85728671875,71.33913749999999Q82.85728671875,69.6400375,81.38788671875,68.7869375L55.73348671875,53.8922185Q54.04278671875,52.9105955,52.37198671875,53.9256915L22.76010671875,71.9159375Q21.64809971875,72.5914375,21.39680171875,73.8681375L21.01481301875,75.8087375Q20.81684271875,76.8144375,21.22492971875,77.7547375Q21.63301871875,78.6950375,22.50283671875,79.2373375L48.351486718749996,95.35363749999999Q50.077786718750005,96.4299375,51.81238671875,95.3671375L81.28548671875001,77.3087375Q82.85728671875,76.3457375,82.85728671875,74.5022375ZM81.02058671875,69.4194375Q82.12588671875,70.0611375,82.12588671875,71.33913749999999L82.12588671875,74.5022375Q82.12588671875,75.9360375,80.90328671875,76.6851375L51.43028671875,94.7434375Q50.08108671875,95.5700375,48.738486718749996,94.73293749999999L22.88981671875,78.6167375Q21.39142771875,77.6825375,21.73245871875,75.9499375L22.11444671875,74.0094375Q22.30346671875,73.0491375,23.13987671875,72.5410375L52.75168671875,54.5507875Q54.05128671875,53.7612715,55.36628671875,54.5247575L81.02058671875,69.4194375Z" fill-rule="evenodd" fill="#CDD0DC" fill-opacity="0.15000000596046448"/></g><g><path d="M23.091814140625,71.6933C21.220624140625,72.8232,21.204364140625,75.5315,23.061864140624998,76.6838L48.572544140625,92.5101C49.520944140625005,93.0985,50.721544140625,93.096,51.667444140625,92.50370000000001L80.961544140625,74.1626C82.811244140625,73.0044,82.78764414062499,70.3019,80.917944140625,69.1763L55.558444140625,53.9098C54.628844140625,53.350192,53.465944140625,53.35099,52.537144140625,53.911875L23.091814140625,71.6933Z" fill="#FFFFFF" fill-opacity="1"/><path d="M48.379744140625,92.8209Q50.122944140624995,93.9023,51.861544140625,92.8137L81.155644140625,74.4725Q82.716344140625,73.4954,82.700244140625,71.654Q82.684144140625,69.8127,81.106544140625,68.863L55.747044140625,53.596485Q54.046844140625,52.572959,52.348044140625,53.598819L22.902764140625,71.3802Q21.323944140625,72.3336,21.312874140625,74.1779Q21.301804140625,76.0223,22.869074140625,76.99459999999999L48.379744140625,92.8209ZM80.767444140625,73.8526L51.473444140625,92.19380000000001Q50.121144140625,93.04050000000001,48.765344140625004,92.1994L23.254654140625,76.373Q22.035674140624998,75.6168,22.044284140625,74.1823Q22.052894140625,72.7479,23.280864140625,72.0063L52.726144140625,54.22493Q54.047444140625,53.427039,55.369844140625,54.22311L80.729244140625,69.4896Q81.95634414062499,70.2283,81.96884414062501,71.6604Q81.981344140625,73.0926,80.767444140625,73.8526Z" fill-rule="evenodd" fill="#CDD0DC" fill-opacity="0.15000000596046448"/></g></g><g transform="matrix(0.995887279510498,-0.09060103446245193,0.09060103446245193,0.995887279510498,-4.175994209945202,2.0053185522556305)"><g style="opacity:0.5;" filter="url(#master_svg2_2233_11244/1678_09480)"><path d="M22.405045578125,68.6619125C22.152839578125,69.8835125,22.702990578125,71.1308125,23.775262578125,71.7682125L49.597142578125,87.1189125C50.511642578125,87.6626125,51.649242578125,87.6669125,52.567942578125,87.1302125L82.041442578125,69.9116125C82.93934257812501,69.3870125,83.491342578125,68.4253125,83.491342578125,67.3854125L83.491342578125,64.5908125C83.491342578125,63.6504125,82.980742578125,62.7842125,82.15804257812499,62.3287125L56.496442578125,48.1228335C55.597142578125,47.6249715,54.502442578125,47.6356165,53.612942578125,48.1508755L23.977542578125,65.3180125C23.340042578125,65.6873125,22.890368578125,66.3110125,22.741417578125,67.0325125L22.405045578125,68.6619125Z" fill="#FFFFFF" fill-opacity="1"/><path d="M83.857042578125,67.3854125L83.857042578125,64.5908125Q83.857042578125,62.8513125,82.335142578125,62.0088125L56.673542578125,47.8028805Q55.042742578125,46.9000455,53.429642578125,47.8344275L23.794222578125,65.0015125Q22.650495578125,65.6641125,22.383261578125,66.9586125L22.046890178125,68.5879125Q21.834090578125,69.6187125,22.258872578125,70.5817125Q22.683653578125,71.5447125,23.588382578125,72.0826125L49.410242578125,87.4333125Q51.077642578125,88.42451249999999,52.752442578125,87.4460125L82.225942578125,70.2273125Q83.857042578125,69.2744125,83.857042578125,67.3854125ZM81.980942578125,62.6487125Q83.125642578125,63.2824125,83.125642578125,64.5908125L83.125642578125,67.3854125Q83.125642578125,68.8546125,81.856942578125,69.5958125L52.383442578125,86.8145125Q51.080842578125,87.5755125,49.784042578124996,86.80461249999999L23.962142578125,71.4538125Q22.394474578125,70.5219125,22.763201578125,68.73581250000001L23.099572578125,67.1064125Q23.300572578125,66.1328125,24.160852578125,65.6344125L53.796342578125,48.4673225Q55.050842578125,47.7405825,56.319342578125,48.4427825L81.980942578125,62.6487125Z" fill-rule="evenodd" fill="#CDD0DC" fill-opacity="1"/></g><g><path d="M24.34421,64.67830000000001C22.40302,65.7961,22.38661,68.5914,24.31455,69.7319L49.6254,84.7038C50.5477,85.24940000000001,51.694500000000005,85.2471,52.6146,84.6978L81.7091,67.3288C83.6294,66.1824,83.6055,63.3928,81.6659,62.2794L56.5056,47.837317C55.6025,47.318889,54.4918,47.319634,53.5893,47.839274L24.34421,64.67830000000001Z" fill="#FFFFFF" fill-opacity="1"/><path d="M49.4392,85.01859999999999Q51.1226,86.0144,52.802,85.0118L81.8965,67.6429Q83.5168,66.6756,83.50059999999999,64.7886Q83.4845,62.9016,81.84790000000001,61.962199999999996L56.6877,47.520146Q55.0466,46.578162,53.4068,47.522347L24.16172,64.3614Q22.52384,65.3045,22.51276,67.1944Q22.50166,69.0844,24.12836,70.0466L49.4392,85.01859999999999ZM81.5216,67.01480000000001L52.4271,84.38380000000001Q51.1209,85.1636,49.8116,84.3891L24.50074,69.4171Q23.23553,68.6687,23.24416,67.1987Q23.25279,65.7288,24.526690000000002,64.9953L53.7718,48.1562Q55.0472,47.421833,56.3236,48.15449L81.4838,62.5966Q82.7567,63.327200000000005,82.7693,64.7949Q82.7818,66.2625,81.5216,67.01480000000001Z" fill-rule="evenodd" fill="#CDD0DC" fill-opacity="1"/></g></g><g><g filter="url(#master_svg3_2233_11244/1678_09489)"><path d="M23.405191132667543,58.6619125C23.152985132667542,59.883512499999995,23.70313613266754,61.130812500000005,24.775408132667543,61.768212500000004L50.59728813266754,77.1189125C51.51178813266754,77.6626125,52.64938813266754,77.6669125,53.56808813266754,77.1302125L83.04158813266754,59.911612500000004C83.93948813266755,59.3870125,84.49148813266754,58.425312500000004,84.49148813266754,57.3854125L84.49148813266754,54.5908125C84.49148813266754,53.6504125,83.98088813266754,52.7842125,83.15818813266753,52.3287125L57.49658813266754,38.1228335C56.59728813266754,37.6249715,55.50258813266754,37.6356165,54.61308813266754,38.1508755L24.97768813266754,55.318012499999995C24.340188132667542,55.687312500000004,23.89051413266754,56.311012500000004,23.74156313266754,57.032512499999996L23.405191132667543,58.6619125Z" fill="#FFFFFF" fill-opacity="1"/><path d="M84.85718813266755,57.3854125L84.85718813266755,54.5908125Q84.85718813266755,52.8513125,83.33528813266754,52.0088125L57.67368813266754,37.8028805Q56.04288813266754,36.9000455,54.42978813266754,37.8344275L24.794368132667543,55.001512500000004Q23.65064113266754,55.6641125,23.383407132667543,56.9586125L23.047035732667542,58.5879125Q22.83423613266754,59.6187125,23.259018132667542,60.581712499999995Q23.68379913266754,61.5447125,24.58852813266754,62.082612499999996L50.41038813266754,77.4333125Q52.07778813266754,78.42451249999999,53.75258813266754,77.4460125L83.22608813266754,60.2273125Q84.85718813266755,59.2744125,84.85718813266755,57.3854125ZM82.98108813266754,52.6487125Q84.12578813266754,53.2824125,84.12578813266754,54.5908125L84.12578813266754,57.3854125Q84.12578813266754,58.8546125,82.85708813266754,59.5958125L53.38358813266754,76.8145125Q52.08098813266754,77.5755125,50.78418813266754,76.80461249999999L24.962288132667542,61.4538125Q23.39462013266754,60.5219125,23.76334713266754,58.7358125L24.09971813266754,57.106412500000005Q24.30071813266754,56.1328125,25.16099813266754,55.634412499999996L54.79648813266754,38.4673225Q56.05098813266754,37.7405825,57.319488132667544,38.4427825L82.98108813266754,52.6487125Z" fill-rule="evenodd" fill="#CDD0DC" fill-opacity="1"/></g><g><path d="M25.34421,54.6783C23.40302,55.796099999999996,23.38661,58.5914,25.31455,59.731899999999996L50.6254,74.7038C51.5477,75.24940000000001,52.694500000000005,75.2471,53.6146,74.6978L82.7091,57.3288C84.6294,56.1824,84.6055,53.3928,82.6659,52.2794L57.5056,37.837317C56.6025,37.318889,55.4918,37.319634,54.5893,37.839274L25.34421,54.6783Z" fill="#FFFFFF" fill-opacity="1"/><path d="M50.4392,75.01859999999999Q52.1226,76.0144,53.802,75.0118L82.8965,57.6429Q84.5168,56.6756,84.50059999999999,54.7886Q84.4845,52.9016,82.84790000000001,51.962199999999996L57.6877,37.520146Q56.0466,36.578162,54.4068,37.522347L25.16172,54.3614Q23.52384,55.304500000000004,23.51276,57.1944Q23.50166,59.0844,25.12836,60.0466L50.4392,75.01859999999999ZM82.5216,57.0148L53.4271,74.38380000000001Q52.1209,75.1636,50.8116,74.3891L25.50074,59.417100000000005Q24.23553,58.6687,24.24416,57.1987Q24.25279,55.7288,25.526690000000002,54.9953L54.7718,38.1562Q56.0472,37.421833,57.3236,38.15449L82.4838,52.5966Q83.7567,53.327200000000005,83.7693,54.7949Q83.7818,56.2625,82.5216,57.0148Z" fill-rule="evenodd" fill="#CDD0DC" fill-opacity="1"/></g></g><g transform="matrix(0.937401533126831,-0.3482504189014435,0.3482504189014435,0.937401533126831,-6.902409911155701,1.6002197563648224)"><g filter="url(#master_svg4_2233_11244/1678_09487)"><path d="M7.537138827087403,53.13496875C7.293337827087402,54.34266875,7.8323098270874025,55.573668749999996,8.885101827087402,56.21376875L34.648511827087404,71.87696875C35.575311827087404,72.44036875,36.7378118270874,72.44486875,37.6689118270874,71.88856874999999L67.0628118270874,54.327068749999995C67.9467118270874,53.79906875,68.4879118270874,52.84516875,68.4879118270874,51.81556875L68.4879118270874,48.86436875C68.4879118270874,47.93286875,67.9869118270874,47.07336875,67.1762118270874,46.61436875L41.5877118270874,32.12780575C40.6756118270874,31.61142875,39.556911827087404,31.62243175,38.6552118270874,32.15664975L9.109471827087402,49.65976875C8.479801827087403,50.03276875,8.037712827087402,50.65516875,7.892892827087403,51.37256875L7.537138827087403,53.13496875Z" fill="#FFFFFF" fill-opacity="1"/><path d="M68.85371182708741,51.81556875L68.85371182708741,48.86436875Q68.85371182708741,47.14376875,67.3564118270874,46.29616875L41.7679118270874,31.80955875Q40.108911827087404,30.87036675,38.46881182708741,31.84200875L8.923081827087403,49.345068749999996Q7.794077827087403,50.013968750000004,7.534414827087402,51.30026875L7.178661927087402,53.06256875Q6.972954827087403,54.08156875,7.389890827087402,55.033868749999996Q7.806825827087402,55.986168750000004,8.695121827087402,56.52626875L34.458511827087406,72.18946875Q36.1536118270874,73.21996874999999,37.8565118270874,72.20246875000001L67.2504118270874,54.64106875Q68.85371182708741,53.68316875,68.85371182708741,51.81556875ZM66.9961118270874,46.93266875Q68.1223118270874,47.57026875,68.1222118270874,48.86436875L68.1222118270874,51.81556875Q68.1222118270874,53.26816875,66.87521182708741,54.01316875L37.4813118270874,71.57466875Q36.1569118270874,72.36596875000001,34.8385118270874,71.56446875L9.075091827087402,55.90126875Q7.540166827087402,54.96806875,7.8956168270874025,53.20726875L8.251371827087402,51.44496875Q8.446681827087403,50.47746875,9.295871827087403,49.97436875L38.8415118270874,32.47128875Q40.1172118270874,31.71557075,41.407511827087404,32.44604875L66.9961118270874,46.93266875Z" fill-rule="evenodd" fill="#CDD0DC" fill-opacity="1"/></g><g><path d="M9.375735468750001,49.0652203125C7.46739546875,50.1889203125,7.45105546875,52.9433203125,9.34592546875,54.0895203125L34.67615546875,69.4126203125C35.61075546875,69.9780203125,36.782555468750004,69.9756203125,37.71495546875,69.4064203125L66.81945546875,51.637620312500005C68.70665546875,50.4855203125,68.68285546875,47.7368203125,66.77605546875,46.6175203125L41.59635546875,31.8365953125C40.68065546875,31.2990863125,39.54565546875,31.2998563125,38.63075546875,31.8386073125L9.375735468750001,49.0652203125Z" fill="#FFFFFF" fill-opacity="1"/><path d="M34.48685546875,69.72552031250001Q36.19825546875,70.7608203125,37.90545546875,69.71862031250001L67.00995546875001,51.9498203125Q68.60235546875,50.9776203125,68.58615546875001,49.1121203125Q68.57005546875,47.246520312499996,66.96115546875001,46.3021203125L41.78145546875,31.5212103125Q40.11265546875,30.5415913125,38.44515546875,31.5234743125L9.19016546875,48.7501203125Q7.5800054687500005,49.6982203125,7.56892546875,51.566720312499996Q7.55784546875,53.4353203125,9.15663546875,54.4024203125L34.48685546875,69.72552031250001ZM66.62885546875,51.325520312500004L37.52435546875,69.0943203125Q36.19655546875,69.9049203125,34.865355468749996,69.0997203125L9.53521546875,53.7766203125Q8.29170546875,53.0244203125,8.30032546875,51.5711203125Q8.30894546875,50.1178203125,9.56129546875,49.380320312500004L38.81625546875,32.1537403125Q40.11325546875,31.3900523125,41.41115546875,32.1519803125L66.59085546875,46.9329203125Q67.84225546875,47.6674203125,67.85475546875,49.1184203125Q67.86735546874999,50.5694203125,66.62885546875,51.325520312500004Z" fill-rule="evenodd" fill="#CDD0DC" fill-opacity="1"/></g><g mask="url(#master_svg6_2233_11244/1678_09485)"><g><path d="M34.4863671875,69.72747343750001Q36.1977671875,70.7627734375,37.9049671875,69.72057343750001L67.00946718750001,51.9517734375Q68.6018671875,50.9795734375,68.58566718750001,49.1140734375Q68.5695671875,47.248473437499996,66.96066718750001,46.3040734375L41.7809671875,31.5231634375Q40.1121671875,30.5435444375,38.4446671875,31.5254274375L9.1896771875,48.7520734375Q7.5795171875000005,49.7001734375,7.5684371875,51.568673437499996Q7.5573571875,53.4372734375,9.1561471875,54.4043734375L34.4863671875,69.72747343750001ZM66.6283671875,51.327473437500004L37.5238671875,69.0962734375Q36.1960671875,69.9068734375,34.864867187499996,69.1016734375L9.5347271875,53.7785734375Q8.2912171875,53.0263734375,8.2998371875,51.5730734375Q8.3084571875,50.1197734375,9.5608071875,49.382273437500004L38.8157671875,32.1556934375Q40.1127671875,31.3920054375,41.4106671875,32.1539334375L66.5903671875,46.9348734375Q67.8417671875,47.6693734375,67.8542671875,49.1203734375Q67.86686718749999,50.5713734375,66.6283671875,51.327473437500004Z" fill-rule="evenodd" fill="#615CED" fill-opacity="1"/></g></g><g transform="matrix(0.6859274506568909,0.727669894695282,-0.838860809803009,0.5443459749221802,46.026952611951856,-9.8511923586193)"><path d="M51.09941640625,40.414995875L44.56345640625,42.418136875C43.74989640625,42.674786875,43.18037640625,43.408566875,43.13359640625,44.260396875L43.13359640625,51.148496875C42.65863640625,50.917496875,42.11830640625,50.857896875,41.60443640625,50.980096875C40.05319640625,51.201996875,38.79931640625,52.386796875,38.79931640625,53.632596875000004C38.79931640625,54.878396875,40.05319640625,55.643296875000004,41.60501640625,55.421396875C43.15682640625,55.199496875,44.28816640625,54.053096875,44.28816640625,52.807896875L44.28816640625,46.156086875Q44.28816640625,45.605496875,44.95315640625,45.368536875000004L50.72951640625,43.557056875Q51.37181640625,43.342746875,51.37181640625,43.931666875L51.37181640625,49.420696875000004C50.857216406250004,49.188436875,50.28521640625,49.113856874999996,49.72821640625,49.206386875C48.17642640625,49.397466875,46.92254640625,50.559596875,46.92254640625,51.805396875C46.92254640625,53.051196875,48.17642640625,53.838196875,49.72821640625,53.655196875C51.28001640625,53.472296875,52.53391640625,52.301996875,52.53391640625,51.056196875L52.53391640625,41.431956875C52.560316406249996,40.675878875,51.80411640625,40.139812875,51.09941640625,40.414995875Z" fill="#E6E8EE" fill-opacity="1"/></g></g></g></g></svg>